ISO-10303-21;
HEADER;
FILE_DESCRIPTION(('FreeCAD Model'),'2;1');
FILE_NAME('Open CASCADE Shape Model','2025-06-29T14:37:13',('Author'),(
    ''),'Open CASCADE STEP processor 7.7','FreeCAD','Unknown');
FILE_SCHEMA(('AUTOMOTIVE_DESIGN { 1 0 10303 214 1 1 1 1 }'));
ENDSEC;
DATA;
#1 = APPLICATION_PROTOCOL_DEFINITION('international standard',
  'automotive_design',2000,#2);
#2 = APPLICATION_CONTEXT(
  'core data for automotive mechanical design processes');
#3 = SHAPE_DEFINITION_REPRESENTATION(#4,#10);
#4 = PRODUCT_DEFINITION_SHAPE('','',#5);
#5 = PRODUCT_DEFINITION('design','',#6,#9);
#6 = PRODUCT_DEFINITION_FORMATION('','',#7);
#7 = PRODUCT('バッテリー固定材','バッテリー固定材','',(
    #8));
#8 = PRODUCT_CONTEXT('',#2,'mechanical');
#9 = PRODUCT_DEFINITION_CONTEXT('part definition',#2,'design');
#10 = ADVANCED_BREP_SHAPE_REPRESENTATION('',(#11,#15),#1767);
#11 = AXIS2_PLACEMENT_3D('',#12,#13,#14);
#12 = CARTESIAN_POINT('',(0.,0.,0.));
#13 = DIRECTION('',(0.,0.,1.));
#14 = DIRECTION('',(1.,0.,-0.));
#15 = MANIFOLD_SOLID_BREP('',#16);
#16 = CLOSED_SHELL('',(#17,#73,#104,#160,#209,#234,#275,#300,#331,#378,
    #417,#513,#530,#554,#578,#595,#625,#637,#678,#709,#738,#780,#805,
    #846,#864,#895,#916,#969,#1029,#1053,#1070,#1109,#1194,#1211,#1271,
    #1289,#1319,#1336,#1348,#1365,#1390,#1414,#1432,#1449,#1466,#1483,
    #1495,#1526,#1579,#1610,#1635,#1658,#1675,#1687,#1704,#1721,#1738,
    #1755));
#17 = ADVANCED_FACE('',(#18),#68,.F.);
#18 = FACE_BOUND('',#19,.F.);
#19 = EDGE_LOOP('',(#20,#30,#38,#46,#54,#62));
#20 = ORIENTED_EDGE('',*,*,#21,.T.);
#21 = EDGE_CURVE('',#22,#24,#26,.T.);
#22 = VERTEX_POINT('',#23);
#23 = CARTESIAN_POINT('',(-18.6,65.,0.));
#24 = VERTEX_POINT('',#25);
#25 = CARTESIAN_POINT('',(-18.6,65.,2.));
#26 = LINE('',#27,#28);
#27 = CARTESIAN_POINT('',(-18.6,65.,0.));
#28 = VECTOR('',#29,1.);
#29 = DIRECTION('',(0.,0.,1.));
#30 = ORIENTED_EDGE('',*,*,#31,.T.);
#31 = EDGE_CURVE('',#24,#32,#34,.T.);
#32 = VERTEX_POINT('',#33);
#33 = CARTESIAN_POINT('',(-18.6,65.,4.));
#34 = LINE('',#35,#36);
#35 = CARTESIAN_POINT('',(-18.6,65.,0.));
#36 = VECTOR('',#37,1.);
#37 = DIRECTION('',(0.,0.,1.));
#38 = ORIENTED_EDGE('',*,*,#39,.T.);
#39 = EDGE_CURVE('',#32,#40,#42,.T.);
#40 = VERTEX_POINT('',#41);
#41 = CARTESIAN_POINT('',(-18.6,65.,12.));
#42 = LINE('',#43,#44);
#43 = CARTESIAN_POINT('',(-18.6,65.,0.));
#44 = VECTOR('',#45,1.);
#45 = DIRECTION('',(0.,0.,1.));
#46 = ORIENTED_EDGE('',*,*,#47,.F.);
#47 = EDGE_CURVE('',#48,#40,#50,.T.);
#48 = VERTEX_POINT('',#49);
#49 = CARTESIAN_POINT('',(-18.6,57.6,12.));
#50 = LINE('',#51,#52);
#51 = CARTESIAN_POINT('',(-18.6,54.6,12.));
#52 = VECTOR('',#53,1.);
#53 = DIRECTION('',(0.,1.,0.));
#54 = ORIENTED_EDGE('',*,*,#55,.F.);
#55 = EDGE_CURVE('',#56,#48,#58,.T.);
#56 = VERTEX_POINT('',#57);
#57 = CARTESIAN_POINT('',(-18.6,57.6,0.));
#58 = LINE('',#59,#60);
#59 = CARTESIAN_POINT('',(-18.6,57.6,0.));
#60 = VECTOR('',#61,1.);
#61 = DIRECTION('',(0.,0.,1.));
#62 = ORIENTED_EDGE('',*,*,#63,.T.);
#63 = EDGE_CURVE('',#56,#22,#64,.T.);
#64 = LINE('',#65,#66);
#65 = CARTESIAN_POINT('',(-18.6,54.6,0.));
#66 = VECTOR('',#67,1.);
#67 = DIRECTION('',(0.,1.,0.));
#68 = PLANE('',#69);
#69 = AXIS2_PLACEMENT_3D('',#70,#71,#72);
#70 = CARTESIAN_POINT('',(-18.6,54.6,0.));
#71 = DIRECTION('',(1.,0.,0.));
#72 = DIRECTION('',(0.,0.,1.));
#73 = ADVANCED_FACE('',(#74),#99,.F.);
#74 = FACE_BOUND('',#75,.F.);
#75 = EDGE_LOOP('',(#76,#77,#85,#93));
#76 = ORIENTED_EDGE('',*,*,#21,.F.);
#77 = ORIENTED_EDGE('',*,*,#78,.F.);
#78 = EDGE_CURVE('',#79,#22,#81,.T.);
#79 = VERTEX_POINT('',#80);
#80 = CARTESIAN_POINT('',(-50.2,65.,0.));
#81 = LINE('',#82,#83);
#82 = CARTESIAN_POINT('',(-75.2,65.,0.));
#83 = VECTOR('',#84,1.);
#84 = DIRECTION('',(1.,0.,0.));
#85 = ORIENTED_EDGE('',*,*,#86,.T.);
#86 = EDGE_CURVE('',#79,#87,#89,.T.);
#87 = VERTEX_POINT('',#88);
#88 = CARTESIAN_POINT('',(-50.2,65.,2.));
#89 = LINE('',#90,#91);
#90 = CARTESIAN_POINT('',(-50.2,65.,0.));
#91 = VECTOR('',#92,1.);
#92 = DIRECTION('',(0.,0.,1.));
#93 = ORIENTED_EDGE('',*,*,#94,.T.);
#94 = EDGE_CURVE('',#87,#24,#95,.T.);
#95 = LINE('',#96,#97);
#96 = CARTESIAN_POINT('',(-50.2,65.,2.));
#97 = VECTOR('',#98,1.);
#98 = DIRECTION('',(1.,0.,0.));
#99 = PLANE('',#100);
#100 = AXIS2_PLACEMENT_3D('',#101,#102,#103);
#101 = CARTESIAN_POINT('',(-75.2,65.,0.));
#102 = DIRECTION('',(0.,1.,0.));
#103 = DIRECTION('',(0.,0.,1.));
#104 = ADVANCED_FACE('',(#105),#155,.F.);
#105 = FACE_BOUND('',#106,.F.);
#106 = EDGE_LOOP('',(#107,#117,#123,#124,#125,#134,#142));
#107 = ORIENTED_EDGE('',*,*,#108,.T.);
#108 = EDGE_CURVE('',#109,#111,#113,.T.);
#109 = VERTEX_POINT('',#110);
#110 = CARTESIAN_POINT('',(-18.6,75.,6.));
#111 = VERTEX_POINT('',#112);
#112 = CARTESIAN_POINT('',(-18.6,75.,12.));
#113 = LINE('',#114,#115);
#114 = CARTESIAN_POINT('',(-18.6,75.,0.));
#115 = VECTOR('',#116,1.);
#116 = DIRECTION('',(0.,0.,1.));
#117 = ORIENTED_EDGE('',*,*,#118,.F.);
#118 = EDGE_CURVE('',#40,#111,#119,.T.);
#119 = LINE('',#120,#121);
#120 = CARTESIAN_POINT('',(-18.6,65.,12.));
#121 = VECTOR('',#122,1.);
#122 = DIRECTION('',(0.,1.,0.));
#123 = ORIENTED_EDGE('',*,*,#39,.F.);
#124 = ORIENTED_EDGE('',*,*,#31,.F.);
#125 = ORIENTED_EDGE('',*,*,#126,.T.);
#126 = EDGE_CURVE('',#24,#127,#129,.T.);
#127 = VERTEX_POINT('',#128);
#128 = CARTESIAN_POINT('',(-18.6,67.,4.));
#129 = CIRCLE('',#130,2.);
#130 = AXIS2_PLACEMENT_3D('',#131,#132,#133);
#131 = CARTESIAN_POINT('',(-18.6,67.,2.));
#132 = DIRECTION('',(-1.,0.,0.));
#133 = DIRECTION('',(0.,0.,1.));
#134 = ORIENTED_EDGE('',*,*,#135,.T.);
#135 = EDGE_CURVE('',#127,#136,#138,.T.);
#136 = VERTEX_POINT('',#137);
#137 = CARTESIAN_POINT('',(-18.6,73.,4.));
#138 = LINE('',#139,#140);
#139 = CARTESIAN_POINT('',(-18.6,59.8,4.));
#140 = VECTOR('',#141,1.);
#141 = DIRECTION('',(0.,1.,0.));
#142 = ORIENTED_EDGE('',*,*,#143,.F.);
#143 = EDGE_CURVE('',#109,#136,#144,.T.);
#144 = B_SPLINE_CURVE_WITH_KNOTS('',9,(#145,#146,#147,#148,#149,#150,
    #151,#152,#153,#154),.UNSPECIFIED.,.F.,.F.,(10,10),(0.,1.),
  .PIECEWISE_BEZIER_KNOTS.);
#145 = CARTESIAN_POINT('',(-18.6,75.,6.));
#146 = CARTESIAN_POINT('',(-18.6,75.,5.649168109977));
#147 = CARTESIAN_POINT('',(-18.6,74.938721971208,5.298332388461));
#148 = CARTESIAN_POINT('',(-18.6,74.810012873709,4.959751842511));
#149 = CARTESIAN_POINT('',(-18.6,74.612211194677,4.649841831723));
#150 = CARTESIAN_POINT('',(-18.6,74.350158168277,4.387788805323));
#151 = CARTESIAN_POINT('',(-18.6,74.040248157489,4.189987126291));
#152 = CARTESIAN_POINT('',(-18.6,73.701667611539,4.061278028792));
#153 = CARTESIAN_POINT('',(-18.6,73.350831890023,4.));
#154 = CARTESIAN_POINT('',(-18.6,73.,4.));
#155 = PLANE('',#156);
#156 = AXIS2_PLACEMENT_3D('',#157,#158,#159);
#157 = CARTESIAN_POINT('',(-18.6,65.,0.));
#158 = DIRECTION('',(1.,0.,0.));
#159 = DIRECTION('',(0.,0.,1.));
#160 = ADVANCED_FACE('',(#161),#204,.F.);
#161 = FACE_BOUND('',#162,.F.);
#162 = EDGE_LOOP('',(#163,#164,#173,#181,#190,#198));
#163 = ORIENTED_EDGE('',*,*,#63,.F.);
#164 = ORIENTED_EDGE('',*,*,#165,.T.);
#165 = EDGE_CURVE('',#56,#166,#168,.T.);
#166 = VERTEX_POINT('',#167);
#167 = CARTESIAN_POINT('',(-15.6,54.6,0.));
#168 = CIRCLE('',#169,3.);
#169 = AXIS2_PLACEMENT_3D('',#170,#171,#172);
#170 = CARTESIAN_POINT('',(-15.6,57.6,0.));
#171 = DIRECTION('',(-0.,0.,1.));
#172 = DIRECTION('',(0.,-1.,0.));
#173 = ORIENTED_EDGE('',*,*,#174,.T.);
#174 = EDGE_CURVE('',#166,#175,#177,.T.);
#175 = VERTEX_POINT('',#176);
#176 = CARTESIAN_POINT('',(-11.6,54.6,0.));
#177 = LINE('',#178,#179);
#178 = CARTESIAN_POINT('',(-18.6,54.6,0.));
#179 = VECTOR('',#180,1.);
#180 = DIRECTION('',(1.,0.,0.));
#181 = ORIENTED_EDGE('',*,*,#182,.F.);
#182 = EDGE_CURVE('',#183,#175,#185,.T.);
#183 = VERTEX_POINT('',#184);
#184 = CARTESIAN_POINT('',(-8.6,57.6,0.));
#185 = CIRCLE('',#186,3.);
#186 = AXIS2_PLACEMENT_3D('',#187,#188,#189);
#187 = CARTESIAN_POINT('',(-11.6,57.6,0.));
#188 = DIRECTION('',(-0.,-0.,-1.));
#189 = DIRECTION('',(0.,-1.,0.));
#190 = ORIENTED_EDGE('',*,*,#191,.T.);
#191 = EDGE_CURVE('',#183,#192,#194,.T.);
#192 = VERTEX_POINT('',#193);
#193 = CARTESIAN_POINT('',(-8.6,65.,0.));
#194 = LINE('',#195,#196);
#195 = CARTESIAN_POINT('',(-8.6,54.6,0.));
#196 = VECTOR('',#197,1.);
#197 = DIRECTION('',(0.,1.,0.));
#198 = ORIENTED_EDGE('',*,*,#199,.F.);
#199 = EDGE_CURVE('',#22,#192,#200,.T.);
#200 = LINE('',#201,#202);
#201 = CARTESIAN_POINT('',(-75.2,65.,0.));
#202 = VECTOR('',#203,1.);
#203 = DIRECTION('',(1.,0.,0.));
#204 = PLANE('',#205);
#205 = AXIS2_PLACEMENT_3D('',#206,#207,#208);
#206 = CARTESIAN_POINT('',(-18.6,54.6,0.));
#207 = DIRECTION('',(0.,0.,1.));
#208 = DIRECTION('',(1.,0.,0.));
#209 = ADVANCED_FACE('',(#210),#229,.T.);
#210 = FACE_BOUND('',#211,.T.);
#211 = EDGE_LOOP('',(#212,#213,#221,#228));
#212 = ORIENTED_EDGE('',*,*,#165,.T.);
#213 = ORIENTED_EDGE('',*,*,#214,.T.);
#214 = EDGE_CURVE('',#166,#215,#217,.T.);
#215 = VERTEX_POINT('',#216);
#216 = CARTESIAN_POINT('',(-15.6,54.6,12.));
#217 = LINE('',#218,#219);
#218 = CARTESIAN_POINT('',(-15.6,54.6,0.));
#219 = VECTOR('',#220,1.);
#220 = DIRECTION('',(0.,0.,1.));
#221 = ORIENTED_EDGE('',*,*,#222,.F.);
#222 = EDGE_CURVE('',#48,#215,#223,.T.);
#223 = CIRCLE('',#224,3.);
#224 = AXIS2_PLACEMENT_3D('',#225,#226,#227);
#225 = CARTESIAN_POINT('',(-15.6,57.6,12.));
#226 = DIRECTION('',(-0.,0.,1.));
#227 = DIRECTION('',(0.,-1.,0.));
#228 = ORIENTED_EDGE('',*,*,#55,.F.);
#229 = CYLINDRICAL_SURFACE('',#230,3.);
#230 = AXIS2_PLACEMENT_3D('',#231,#232,#233);
#231 = CARTESIAN_POINT('',(-15.6,57.6,0.));
#232 = DIRECTION('',(0.,0.,1.));
#233 = DIRECTION('',(-1.,0.,0.));
#234 = ADVANCED_FACE('',(#235),#270,.T.);
#235 = FACE_BOUND('',#236,.T.);
#236 = EDGE_LOOP('',(#237,#238,#239,#247,#256,#264));
#237 = ORIENTED_EDGE('',*,*,#47,.F.);
#238 = ORIENTED_EDGE('',*,*,#222,.T.);
#239 = ORIENTED_EDGE('',*,*,#240,.T.);
#240 = EDGE_CURVE('',#215,#241,#243,.T.);
#241 = VERTEX_POINT('',#242);
#242 = CARTESIAN_POINT('',(-11.6,54.6,12.));
#243 = LINE('',#244,#245);
#244 = CARTESIAN_POINT('',(-18.6,54.6,12.));
#245 = VECTOR('',#246,1.);
#246 = DIRECTION('',(1.,0.,0.));
#247 = ORIENTED_EDGE('',*,*,#248,.F.);
#248 = EDGE_CURVE('',#249,#241,#251,.T.);
#249 = VERTEX_POINT('',#250);
#250 = CARTESIAN_POINT('',(-8.6,57.6,12.));
#251 = CIRCLE('',#252,3.);
#252 = AXIS2_PLACEMENT_3D('',#253,#254,#255);
#253 = CARTESIAN_POINT('',(-11.6,57.6,12.));
#254 = DIRECTION('',(-0.,-0.,-1.));
#255 = DIRECTION('',(0.,-1.,0.));
#256 = ORIENTED_EDGE('',*,*,#257,.T.);
#257 = EDGE_CURVE('',#249,#258,#260,.T.);
#258 = VERTEX_POINT('',#259);
#259 = CARTESIAN_POINT('',(-8.6,65.,12.));
#260 = LINE('',#261,#262);
#261 = CARTESIAN_POINT('',(-8.6,54.6,12.));
#262 = VECTOR('',#263,1.);
#263 = DIRECTION('',(0.,1.,0.));
#264 = ORIENTED_EDGE('',*,*,#265,.F.);
#265 = EDGE_CURVE('',#40,#258,#266,.T.);
#266 = LINE('',#267,#268);
#267 = CARTESIAN_POINT('',(-18.6,65.,12.));
#268 = VECTOR('',#269,1.);
#269 = DIRECTION('',(1.,0.,0.));
#270 = PLANE('',#271);
#271 = AXIS2_PLACEMENT_3D('',#272,#273,#274);
#272 = CARTESIAN_POINT('',(-18.6,54.6,12.));
#273 = DIRECTION('',(0.,0.,1.));
#274 = DIRECTION('',(1.,0.,0.));
#275 = ADVANCED_FACE('',(#276),#295,.T.);
#276 = FACE_BOUND('',#277,.F.);
#277 = EDGE_LOOP('',(#278,#287,#293,#294));
#278 = ORIENTED_EDGE('',*,*,#279,.T.);
#279 = EDGE_CURVE('',#87,#280,#282,.T.);
#280 = VERTEX_POINT('',#281);
#281 = CARTESIAN_POINT('',(-50.2,67.,4.));
#282 = CIRCLE('',#283,2.);
#283 = AXIS2_PLACEMENT_3D('',#284,#285,#286);
#284 = CARTESIAN_POINT('',(-50.2,67.,2.));
#285 = DIRECTION('',(-1.,0.,0.));
#286 = DIRECTION('',(0.,0.,1.));
#287 = ORIENTED_EDGE('',*,*,#288,.T.);
#288 = EDGE_CURVE('',#280,#127,#289,.T.);
#289 = LINE('',#290,#291);
#290 = CARTESIAN_POINT('',(-50.2,67.,4.));
#291 = VECTOR('',#292,1.);
#292 = DIRECTION('',(1.,0.,0.));
#293 = ORIENTED_EDGE('',*,*,#126,.F.);
#294 = ORIENTED_EDGE('',*,*,#94,.F.);
#295 = CYLINDRICAL_SURFACE('',#296,2.);
#296 = AXIS2_PLACEMENT_3D('',#297,#298,#299);
#297 = CARTESIAN_POINT('',(-50.2,67.,2.));
#298 = DIRECTION('',(1.,0.,0.));
#299 = DIRECTION('',(0.,-1.,0.));
#300 = ADVANCED_FACE('',(#301),#326,.F.);
#301 = FACE_BOUND('',#302,.F.);
#302 = EDGE_LOOP('',(#303,#311,#312,#320));
#303 = ORIENTED_EDGE('',*,*,#304,.F.);
#304 = EDGE_CURVE('',#79,#305,#307,.T.);
#305 = VERTEX_POINT('',#306);
#306 = CARTESIAN_POINT('',(-50.2,75.,0.));
#307 = LINE('',#308,#309);
#308 = CARTESIAN_POINT('',(-50.2,65.,0.));
#309 = VECTOR('',#310,1.);
#310 = DIRECTION('',(0.,1.,0.));
#311 = ORIENTED_EDGE('',*,*,#78,.T.);
#312 = ORIENTED_EDGE('',*,*,#313,.T.);
#313 = EDGE_CURVE('',#22,#314,#316,.T.);
#314 = VERTEX_POINT('',#315);
#315 = CARTESIAN_POINT('',(-18.6,75.,0.));
#316 = LINE('',#317,#318);
#317 = CARTESIAN_POINT('',(-18.6,65.,0.));
#318 = VECTOR('',#319,1.);
#319 = DIRECTION('',(0.,1.,0.));
#320 = ORIENTED_EDGE('',*,*,#321,.F.);
#321 = EDGE_CURVE('',#305,#314,#322,.T.);
#322 = LINE('',#323,#324);
#323 = CARTESIAN_POINT('',(-75.2,75.,0.));
#324 = VECTOR('',#325,1.);
#325 = DIRECTION('',(1.,0.,0.));
#326 = PLANE('',#327);
#327 = AXIS2_PLACEMENT_3D('',#328,#329,#330);
#328 = CARTESIAN_POINT('',(-75.2,65.,0.));
#329 = DIRECTION('',(0.,0.,1.));
#330 = DIRECTION('',(1.,0.,0.));
#331 = ADVANCED_FACE('',(#332),#373,.T.);
#332 = FACE_BOUND('',#333,.T.);
#333 = EDGE_LOOP('',(#334,#335,#343,#351,#359,#367));
#334 = ORIENTED_EDGE('',*,*,#86,.T.);
#335 = ORIENTED_EDGE('',*,*,#336,.T.);
#336 = EDGE_CURVE('',#87,#337,#339,.T.);
#337 = VERTEX_POINT('',#338);
#338 = CARTESIAN_POINT('',(-50.2,65.,4.));
#339 = LINE('',#340,#341);
#340 = CARTESIAN_POINT('',(-50.2,65.,0.));
#341 = VECTOR('',#342,1.);
#342 = DIRECTION('',(0.,0.,1.));
#343 = ORIENTED_EDGE('',*,*,#344,.T.);
#344 = EDGE_CURVE('',#337,#345,#347,.T.);
#345 = VERTEX_POINT('',#346);
#346 = CARTESIAN_POINT('',(-50.2,65.,12.));
#347 = LINE('',#348,#349);
#348 = CARTESIAN_POINT('',(-50.2,65.,0.));
#349 = VECTOR('',#350,1.);
#350 = DIRECTION('',(0.,0.,1.));
#351 = ORIENTED_EDGE('',*,*,#352,.F.);
#352 = EDGE_CURVE('',#353,#345,#355,.T.);
#353 = VERTEX_POINT('',#354);
#354 = CARTESIAN_POINT('',(-50.2,57.6,12.));
#355 = LINE('',#356,#357);
#356 = CARTESIAN_POINT('',(-50.2,54.6,12.));
#357 = VECTOR('',#358,1.);
#358 = DIRECTION('',(0.,1.,0.));
#359 = ORIENTED_EDGE('',*,*,#360,.F.);
#360 = EDGE_CURVE('',#361,#353,#363,.T.);
#361 = VERTEX_POINT('',#362);
#362 = CARTESIAN_POINT('',(-50.2,57.6,0.));
#363 = LINE('',#364,#365);
#364 = CARTESIAN_POINT('',(-50.2,57.6,0.));
#365 = VECTOR('',#366,1.);
#366 = DIRECTION('',(0.,0.,1.));
#367 = ORIENTED_EDGE('',*,*,#368,.T.);
#368 = EDGE_CURVE('',#361,#79,#369,.T.);
#369 = LINE('',#370,#371);
#370 = CARTESIAN_POINT('',(-50.2,54.6,0.));
#371 = VECTOR('',#372,1.);
#372 = DIRECTION('',(0.,1.,0.));
#373 = PLANE('',#374);
#374 = AXIS2_PLACEMENT_3D('',#375,#376,#377);
#375 = CARTESIAN_POINT('',(-50.2,54.6,0.));
#376 = DIRECTION('',(1.,0.,0.));
#377 = DIRECTION('',(0.,0.,1.));
#378 = ADVANCED_FACE('',(#379),#412,.T.);
#379 = FACE_BOUND('',#380,.T.);
#380 = EDGE_LOOP('',(#381,#391,#397,#398,#406));
#381 = ORIENTED_EDGE('',*,*,#382,.F.);
#382 = EDGE_CURVE('',#383,#385,#387,.T.);
#383 = VERTEX_POINT('',#384);
#384 = CARTESIAN_POINT('',(-18.6,75.,4.));
#385 = VERTEX_POINT('',#386);
#386 = CARTESIAN_POINT('',(-8.6,75.,4.));
#387 = LINE('',#388,#389);
#388 = CARTESIAN_POINT('',(-75.2,75.,4.));
#389 = VECTOR('',#390,1.);
#390 = DIRECTION('',(1.,0.,0.));
#391 = ORIENTED_EDGE('',*,*,#392,.T.);
#392 = EDGE_CURVE('',#383,#109,#393,.T.);
#393 = LINE('',#394,#395);
#394 = CARTESIAN_POINT('',(-18.6,75.,4.));
#395 = VECTOR('',#396,1.);
#396 = DIRECTION('',(0.,0.,1.));
#397 = ORIENTED_EDGE('',*,*,#108,.T.);
#398 = ORIENTED_EDGE('',*,*,#399,.T.);
#399 = EDGE_CURVE('',#111,#400,#402,.T.);
#400 = VERTEX_POINT('',#401);
#401 = CARTESIAN_POINT('',(-8.6,75.,12.));
#402 = LINE('',#403,#404);
#403 = CARTESIAN_POINT('',(-18.6,75.,12.));
#404 = VECTOR('',#405,1.);
#405 = DIRECTION('',(1.,0.,0.));
#406 = ORIENTED_EDGE('',*,*,#407,.F.);
#407 = EDGE_CURVE('',#385,#400,#408,.T.);
#408 = LINE('',#409,#410);
#409 = CARTESIAN_POINT('',(-8.6,75.,0.));
#410 = VECTOR('',#411,1.);
#411 = DIRECTION('',(0.,0.,1.));
#412 = PLANE('',#413);
#413 = AXIS2_PLACEMENT_3D('',#414,#415,#416);
#414 = CARTESIAN_POINT('',(-18.6,75.,0.));
#415 = DIRECTION('',(0.,1.,0.));
#416 = DIRECTION('',(0.,0.,1.));
#417 = ADVANCED_FACE('',(#418),#440,.T.);
#418 = FACE_BOUND('',#419,.T.);
#419 = EDGE_LOOP('',(#420,#432,#433,#434));
#420 = ORIENTED_EDGE('',*,*,#421,.F.);
#421 = EDGE_CURVE('',#136,#422,#424,.T.);
#422 = VERTEX_POINT('',#423);
#423 = CARTESIAN_POINT('',(-18.6,75.,2.));
#424 = ( BOUNDED_CURVE() B_SPLINE_CURVE(6,(#425,#426,#427,#428,#429,#430
,#431),.UNSPECIFIED.,.F.,.F.) B_SPLINE_CURVE_WITH_KNOTS((7,7),(0.,
1.570796326795),.PIECEWISE_BEZIER_KNOTS.) CURVE() 
GEOMETRIC_REPRESENTATION_ITEM() RATIONAL_B_SPLINE_CURVE((1.031393471788,
    1.010025407661,0.997924642725,0.993958444137,0.997924642725,
1.010025407661,1.031393471788)) REPRESENTATION_ITEM('') );
#425 = CARTESIAN_POINT('',(-18.6,73.,4.));
#426 = CARTESIAN_POINT('',(-18.6,73.534673566306,4.));
#427 = CARTESIAN_POINT('',(-18.6,74.055417145164,3.829991298733));
#428 = CARTESIAN_POINT('',(-18.6,74.503839026405,3.503839026405));
#429 = CARTESIAN_POINT('',(-18.6,74.829991298733,3.055417145164));
#430 = CARTESIAN_POINT('',(-18.6,75.,2.534673566306));
#431 = CARTESIAN_POINT('',(-18.6,75.,2.));
#432 = ORIENTED_EDGE('',*,*,#143,.F.);
#433 = ORIENTED_EDGE('',*,*,#392,.F.);
#434 = ORIENTED_EDGE('',*,*,#435,.F.);
#435 = EDGE_CURVE('',#422,#383,#436,.T.);
#436 = LINE('',#437,#438);
#437 = CARTESIAN_POINT('',(-18.6,75.,2.));
#438 = VECTOR('',#439,1.);
#439 = DIRECTION('',(0.,0.,1.));
#440 = B_SPLINE_SURFACE_WITH_KNOTS('',8,7,(
    (#441,#442,#443,#444,#445,#446,#447,#448)
    ,(#449,#450,#451,#452,#453,#454,#455,#456)
    ,(#457,#458,#459,#460,#461,#462,#463,#464)
    ,(#465,#466,#467,#468,#469,#470,#471,#472)
    ,(#473,#474,#475,#476,#477,#478,#479,#480)
    ,(#481,#482,#483,#484,#485,#486,#487,#488)
    ,(#489,#490,#491,#492,#493,#494,#495,#496)
    ,(#497,#498,#499,#500,#501,#502,#503,#504)
    ,(#505,#506,#507,#508,#509,#510,#511,#512
  )),.UNSPECIFIED.,.F.,.F.,.F.,(9,9),(8,8),(-2.197126739646,
    2.202861930379),(-1.801885693187,0.403101227656),
  .PIECEWISE_BEZIER_KNOTS.);
#441 = CARTESIAN_POINT('',(-18.6,72.830960947192,1.805861844694));
#442 = CARTESIAN_POINT('',(-18.6,73.146111433522,1.804901458797));
#443 = CARTESIAN_POINT('',(-18.6,73.461244885673,1.80394663477));
#444 = CARTESIAN_POINT('',(-18.6,73.776309954645,1.803089097903));
#445 = CARTESIAN_POINT('',(-18.6,74.091309629628,1.802326576776));
#446 = CARTESIAN_POINT('',(-18.6,74.406275756608,1.801609212853));
#447 = CARTESIAN_POINT('',(-18.6,74.721243556884,1.800885970069));
#448 = CARTESIAN_POINT('',(-18.6,75.036226145676,1.800151044425));
#449 = CARTESIAN_POINT('',(-18.6,72.832224883259,2.355708513736));
#450 = CARTESIAN_POINT('',(-18.6,73.147352986605,2.354785107912));
#451 = CARTESIAN_POINT('',(-18.6,73.462450914456,2.35386027576));
#452 = CARTESIAN_POINT('',(-18.59999999999,73.777599260623,
    2.352992766622));
#453 = CARTESIAN_POINT('',(-18.6,74.092417393285,2.352342065414));
#454 = CARTESIAN_POINT('',(-18.6,74.407508280062,2.351588287976));
#455 = CARTESIAN_POINT('',(-18.6,74.722413503742,2.350918760752));
#456 = CARTESIAN_POINT('',(-18.6,75.03738292071,2.350210426806));
#457 = CARTESIAN_POINT('',(-18.6,72.833500378093,2.905554632578));
#458 = CARTESIAN_POINT('',(-18.6,73.148604949922,2.904672809231));
#459 = CARTESIAN_POINT('',(-18.59999999999,73.463878392546,2.90396306522
    ));
#460 = CARTESIAN_POINT('',(-18.6,73.778116075631,2.902632546658));
#461 = CARTESIAN_POINT('',(-18.59999999999,74.094542815008,
    2.902927767633));
#462 = CARTESIAN_POINT('',(-18.6,74.407955281303,2.901200037242));
#463 = CARTESIAN_POINT('',(-18.59999999999,74.724074851078,
    2.900815249063));
#464 = CARTESIAN_POINT('',(-18.6,75.038839871671,2.900251929849));
#465 = CARTESIAN_POINT('',(-18.59999999999,72.83480329619,3.455390456747
    ));
#466 = CARTESIAN_POINT('',(-18.59999999999,73.149865832888,
    3.454574404018));
#467 = CARTESIAN_POINT('',(-18.6,73.464554868546,3.453538046713));
#468 = CARTESIAN_POINT('',(-18.59999999999,73.781722346938,
    3.452478306069));
#469 = CARTESIAN_POINT('',(-18.6,74.092903975079,3.452086804975));
#470 = CARTESIAN_POINT('',(-18.59999999999,74.411521312183,
    3.452041040546));
#471 = CARTESIAN_POINT('',(-18.6,74.724074930028,3.450984118366));
#472 = CARTESIAN_POINT('',(-18.59999999999,75.039513658107,
    3.450032241284));
#473 = CARTESIAN_POINT('',(-18.6,72.836147938176,4.005206168461));
#474 = CARTESIAN_POINT('',(-18.6,73.151153375556,4.004474792396));
#475 = CARTESIAN_POINT('',(-18.59999999999,73.466548008282,
    4.003716312123));
#476 = CARTESIAN_POINT('',(-18.6,73.780052213242,4.003221441314));
#477 = CARTESIAN_POINT('',(-18.59999999999,74.09777458281,4.002372743438
    ));
#478 = CARTESIAN_POINT('',(-18.6,74.409630758652,4.001571700492));
#479 = CARTESIAN_POINT('',(-18.59999999999,74.727170431331,
    4.000670257182));
#480 = CARTESIAN_POINT('',(-18.6,75.041751880318,4.000168048071));
#481 = CARTESIAN_POINT('',(-18.59999999999,72.837547040781,
    4.554991876626));
#482 = CARTESIAN_POINT('',(-18.6,73.152494229573,4.554346212176));
#483 = CARTESIAN_POINT('',(-18.6,73.467171497864,4.553992440859));
#484 = CARTESIAN_POINT('',(-18.59999999999,73.782624119236,
    4.553335708816));
#485 = CARTESIAN_POINT('',(-18.6,74.096283866815,4.552849301534));
#486 = CARTESIAN_POINT('',(-18.59999999999,74.413729196827,
    4.550853525151));
#487 = CARTESIAN_POINT('',(-18.6,74.726842035071,4.551099191219));
#488 = CARTESIAN_POINT('',(-18.59999999999,75.041943500893,
    4.550319984182));
#489 = CARTESIAN_POINT('',(-18.6,72.839011776874,5.104737616838));
#490 = CARTESIAN_POINT('',(-18.6,73.153913640083,5.104160517634));
#491 = CARTESIAN_POINT('',(-18.6,73.469068273036,5.103298331457));
#492 = CARTESIAN_POINT('',(-18.6,73.782903384639,5.10388593136));
#493 = CARTESIAN_POINT('',(-18.59999999999,74.100057761086,
    5.100952145507));
#494 = CARTESIAN_POINT('',(-18.6,74.412572422126,5.102632844787));
#495 = CARTESIAN_POINT('',(-18.59999999999,74.728786823771,
    5.100825812162));
#496 = CARTESIAN_POINT('',(-18.6,75.043964956267,5.100002188314));
#497 = CARTESIAN_POINT('',(-18.6,72.840551755425,5.654433351379));
#498 = CARTESIAN_POINT('',(-18.6,73.155425126676,5.65390145835));
#499 = CARTESIAN_POINT('',(-18.59999999999,73.470266150897,
    5.653431587609));
#500 = CARTESIAN_POINT('',(-18.6,73.785231444148,5.652753308091));
#501 = CARTESIAN_POINT('',(-18.59999999999,74.100039233063,5.65233167894
    ));
#502 = CARTESIAN_POINT('',(-18.6,74.415082272008,5.651413059461));
#503 = CARTESIAN_POINT('',(-18.6,74.729997217477,5.650838962389));
#504 = CARTESIAN_POINT('',(-18.6,75.04485455921,5.650215888077));
#505 = CARTESIAN_POINT('',(-18.6,72.842175021539,6.204068969224));
#506 = CARTESIAN_POINT('',(-18.6,73.157020165057,6.20357695799));
#507 = CARTESIAN_POINT('',(-18.6,73.471836118185,6.203133779825));
#508 = CARTESIAN_POINT('',(-18.6,73.786787325425,6.202477316132));
#509 = CARTESIAN_POINT('',(-18.6,74.101514378727,6.202139560352));
#510 = CARTESIAN_POINT('',(-18.6,74.416582290769,6.201226588349));
#511 = CARTESIAN_POINT('',(-18.6,74.731382345452,6.200735299298));
#512 = CARTESIAN_POINT('',(-18.6,75.046148530272,6.200182105023));
#513 = ADVANCED_FACE('',(#514),#525,.T.);
#514 = FACE_BOUND('',#515,.T.);
#515 = EDGE_LOOP('',(#516,#517,#518,#524));
#516 = ORIENTED_EDGE('',*,*,#118,.F.);
#517 = ORIENTED_EDGE('',*,*,#265,.T.);
#518 = ORIENTED_EDGE('',*,*,#519,.T.);
#519 = EDGE_CURVE('',#258,#400,#520,.T.);
#520 = LINE('',#521,#522);
#521 = CARTESIAN_POINT('',(-8.6,54.6,12.));
#522 = VECTOR('',#523,1.);
#523 = DIRECTION('',(0.,1.,0.));
#524 = ORIENTED_EDGE('',*,*,#399,.F.);
#525 = PLANE('',#526);
#526 = AXIS2_PLACEMENT_3D('',#527,#528,#529);
#527 = CARTESIAN_POINT('',(-18.6,65.,12.));
#528 = DIRECTION('',(0.,0.,1.));
#529 = DIRECTION('',(1.,0.,0.));
#530 = ADVANCED_FACE('',(#531),#549,.T.);
#531 = FACE_BOUND('',#532,.T.);
#532 = EDGE_LOOP('',(#533,#541,#542,#543));
#533 = ORIENTED_EDGE('',*,*,#534,.F.);
#534 = EDGE_CURVE('',#280,#535,#537,.T.);
#535 = VERTEX_POINT('',#536);
#536 = CARTESIAN_POINT('',(-50.2,73.,4.));
#537 = LINE('',#538,#539);
#538 = CARTESIAN_POINT('',(-50.2,59.8,4.));
#539 = VECTOR('',#540,1.);
#540 = DIRECTION('',(0.,1.,0.));
#541 = ORIENTED_EDGE('',*,*,#288,.T.);
#542 = ORIENTED_EDGE('',*,*,#135,.T.);
#543 = ORIENTED_EDGE('',*,*,#544,.F.);
#544 = EDGE_CURVE('',#535,#136,#545,.T.);
#545 = LINE('',#546,#547);
#546 = CARTESIAN_POINT('',(-50.2,73.,4.));
#547 = VECTOR('',#548,1.);
#548 = DIRECTION('',(1.,0.,0.));
#549 = PLANE('',#550);
#550 = AXIS2_PLACEMENT_3D('',#551,#552,#553);
#551 = CARTESIAN_POINT('',(-75.2,65.,4.));
#552 = DIRECTION('',(0.,0.,1.));
#553 = DIRECTION('',(1.,0.,0.));
#554 = ADVANCED_FACE('',(#555),#573,.F.);
#555 = FACE_BOUND('',#556,.F.);
#556 = EDGE_LOOP('',(#557,#558,#559,#567));
#557 = ORIENTED_EDGE('',*,*,#313,.F.);
#558 = ORIENTED_EDGE('',*,*,#199,.T.);
#559 = ORIENTED_EDGE('',*,*,#560,.T.);
#560 = EDGE_CURVE('',#192,#561,#563,.T.);
#561 = VERTEX_POINT('',#562);
#562 = CARTESIAN_POINT('',(-8.6,75.,0.));
#563 = LINE('',#564,#565);
#564 = CARTESIAN_POINT('',(-8.6,54.6,0.));
#565 = VECTOR('',#566,1.);
#566 = DIRECTION('',(0.,1.,0.));
#567 = ORIENTED_EDGE('',*,*,#568,.F.);
#568 = EDGE_CURVE('',#314,#561,#569,.T.);
#569 = LINE('',#570,#571);
#570 = CARTESIAN_POINT('',(-75.2,75.,0.));
#571 = VECTOR('',#572,1.);
#572 = DIRECTION('',(1.,0.,0.));
#573 = PLANE('',#574);
#574 = AXIS2_PLACEMENT_3D('',#575,#576,#577);
#575 = CARTESIAN_POINT('',(-75.2,65.,0.));
#576 = DIRECTION('',(0.,0.,1.));
#577 = DIRECTION('',(1.,0.,0.));
#578 = ADVANCED_FACE('',(#579),#590,.F.);
#579 = FACE_BOUND('',#580,.F.);
#580 = EDGE_LOOP('',(#581,#582,#583,#584));
#581 = ORIENTED_EDGE('',*,*,#174,.F.);
#582 = ORIENTED_EDGE('',*,*,#214,.T.);
#583 = ORIENTED_EDGE('',*,*,#240,.T.);
#584 = ORIENTED_EDGE('',*,*,#585,.F.);
#585 = EDGE_CURVE('',#175,#241,#586,.T.);
#586 = LINE('',#587,#588);
#587 = CARTESIAN_POINT('',(-11.6,54.6,0.));
#588 = VECTOR('',#589,1.);
#589 = DIRECTION('',(0.,0.,1.));
#590 = PLANE('',#591);
#591 = AXIS2_PLACEMENT_3D('',#592,#593,#594);
#592 = CARTESIAN_POINT('',(-18.6,54.6,0.));
#593 = DIRECTION('',(0.,1.,0.));
#594 = DIRECTION('',(0.,0.,1.));
#595 = ADVANCED_FACE('',(#596),#620,.T.);
#596 = FACE_BOUND('',#597,.T.);
#597 = EDGE_LOOP('',(#598,#599,#605,#606,#614));
#598 = ORIENTED_EDGE('',*,*,#257,.F.);
#599 = ORIENTED_EDGE('',*,*,#600,.F.);
#600 = EDGE_CURVE('',#183,#249,#601,.T.);
#601 = LINE('',#602,#603);
#602 = CARTESIAN_POINT('',(-8.6,57.6,0.));
#603 = VECTOR('',#604,1.);
#604 = DIRECTION('',(0.,0.,1.));
#605 = ORIENTED_EDGE('',*,*,#191,.T.);
#606 = ORIENTED_EDGE('',*,*,#607,.F.);
#607 = EDGE_CURVE('',#608,#192,#610,.T.);
#608 = VERTEX_POINT('',#609);
#609 = CARTESIAN_POINT('',(-8.6,65.,4.));
#610 = LINE('',#611,#612);
#611 = CARTESIAN_POINT('',(-8.6,65.,0.));
#612 = VECTOR('',#613,1.);
#613 = DIRECTION('',(0.,0.,-1.));
#614 = ORIENTED_EDGE('',*,*,#615,.F.);
#615 = EDGE_CURVE('',#258,#608,#616,.T.);
#616 = LINE('',#617,#618);
#617 = CARTESIAN_POINT('',(-8.6,65.,0.));
#618 = VECTOR('',#619,1.);
#619 = DIRECTION('',(0.,0.,-1.));
#620 = PLANE('',#621);
#621 = AXIS2_PLACEMENT_3D('',#622,#623,#624);
#622 = CARTESIAN_POINT('',(-8.6,54.6,0.));
#623 = DIRECTION('',(1.,0.,0.));
#624 = DIRECTION('',(0.,0.,1.));
#625 = ADVANCED_FACE('',(#626),#632,.T.);
#626 = FACE_BOUND('',#627,.F.);
#627 = EDGE_LOOP('',(#628,#629,#630,#631));
#628 = ORIENTED_EDGE('',*,*,#182,.T.);
#629 = ORIENTED_EDGE('',*,*,#585,.T.);
#630 = ORIENTED_EDGE('',*,*,#248,.F.);
#631 = ORIENTED_EDGE('',*,*,#600,.F.);
#632 = CYLINDRICAL_SURFACE('',#633,3.);
#633 = AXIS2_PLACEMENT_3D('',#634,#635,#636);
#634 = CARTESIAN_POINT('',(-11.6,57.6,0.));
#635 = DIRECTION('',(0.,0.,1.));
#636 = DIRECTION('',(1.,0.,0.));
#637 = ADVANCED_FACE('',(#638),#673,.T.);
#638 = FACE_BOUND('',#639,.T.);
#639 = EDGE_LOOP('',(#640,#650,#656,#657,#658,#659,#660));
#640 = ORIENTED_EDGE('',*,*,#641,.T.);
#641 = EDGE_CURVE('',#642,#644,#646,.T.);
#642 = VERTEX_POINT('',#643);
#643 = CARTESIAN_POINT('',(-50.2,75.,6.));
#644 = VERTEX_POINT('',#645);
#645 = CARTESIAN_POINT('',(-50.2,75.,12.));
#646 = LINE('',#647,#648);
#647 = CARTESIAN_POINT('',(-50.2,75.,0.));
#648 = VECTOR('',#649,1.);
#649 = DIRECTION('',(0.,0.,1.));
#650 = ORIENTED_EDGE('',*,*,#651,.F.);
#651 = EDGE_CURVE('',#345,#644,#652,.T.);
#652 = LINE('',#653,#654);
#653 = CARTESIAN_POINT('',(-50.2,65.,12.));
#654 = VECTOR('',#655,1.);
#655 = DIRECTION('',(0.,1.,0.));
#656 = ORIENTED_EDGE('',*,*,#344,.F.);
#657 = ORIENTED_EDGE('',*,*,#336,.F.);
#658 = ORIENTED_EDGE('',*,*,#279,.T.);
#659 = ORIENTED_EDGE('',*,*,#534,.T.);
#660 = ORIENTED_EDGE('',*,*,#661,.F.);
#661 = EDGE_CURVE('',#642,#535,#662,.T.);
#662 = B_SPLINE_CURVE_WITH_KNOTS('',9,(#663,#664,#665,#666,#667,#668,
    #669,#670,#671,#672),.UNSPECIFIED.,.F.,.F.,(10,10),(0.,1.),
  .PIECEWISE_BEZIER_KNOTS.);
#663 = CARTESIAN_POINT('',(-50.2,75.,6.));
#664 = CARTESIAN_POINT('',(-50.2,75.,5.649168109977));
#665 = CARTESIAN_POINT('',(-50.2,74.938721971208,5.298332388461));
#666 = CARTESIAN_POINT('',(-50.2,74.810012873709,4.959751842511));
#667 = CARTESIAN_POINT('',(-50.2,74.612211194677,4.649841831723));
#668 = CARTESIAN_POINT('',(-50.2,74.350158168277,4.387788805323));
#669 = CARTESIAN_POINT('',(-50.2,74.040248157489,4.189987126291));
#670 = CARTESIAN_POINT('',(-50.2,73.701667611539,4.061278028792));
#671 = CARTESIAN_POINT('',(-50.2,73.350831890023,4.));
#672 = CARTESIAN_POINT('',(-50.2,73.,4.));
#673 = PLANE('',#674);
#674 = AXIS2_PLACEMENT_3D('',#675,#676,#677);
#675 = CARTESIAN_POINT('',(-50.2,65.,0.));
#676 = DIRECTION('',(1.,0.,0.));
#677 = DIRECTION('',(0.,0.,1.));
#678 = ADVANCED_FACE('',(#679),#704,.F.);
#679 = FACE_BOUND('',#680,.F.);
#680 = EDGE_LOOP('',(#681,#691,#697,#698));
#681 = ORIENTED_EDGE('',*,*,#682,.F.);
#682 = EDGE_CURVE('',#683,#685,#687,.T.);
#683 = VERTEX_POINT('',#684);
#684 = CARTESIAN_POINT('',(-60.2,65.,0.));
#685 = VERTEX_POINT('',#686);
#686 = CARTESIAN_POINT('',(-60.2,75.,0.));
#687 = LINE('',#688,#689);
#688 = CARTESIAN_POINT('',(-60.2,54.6,0.));
#689 = VECTOR('',#690,1.);
#690 = DIRECTION('',(0.,1.,0.));
#691 = ORIENTED_EDGE('',*,*,#692,.T.);
#692 = EDGE_CURVE('',#683,#79,#693,.T.);
#693 = LINE('',#694,#695);
#694 = CARTESIAN_POINT('',(-75.2,65.,0.));
#695 = VECTOR('',#696,1.);
#696 = DIRECTION('',(1.,0.,0.));
#697 = ORIENTED_EDGE('',*,*,#304,.T.);
#698 = ORIENTED_EDGE('',*,*,#699,.F.);
#699 = EDGE_CURVE('',#685,#305,#700,.T.);
#700 = LINE('',#701,#702);
#701 = CARTESIAN_POINT('',(-75.2,75.,0.));
#702 = VECTOR('',#703,1.);
#703 = DIRECTION('',(1.,0.,0.));
#704 = PLANE('',#705);
#705 = AXIS2_PLACEMENT_3D('',#706,#707,#708);
#706 = CARTESIAN_POINT('',(-75.2,65.,0.));
#707 = DIRECTION('',(0.,0.,1.));
#708 = DIRECTION('',(1.,0.,0.));
#709 = ADVANCED_FACE('',(#710),#733,.T.);
#710 = FACE_BOUND('',#711,.T.);
#711 = EDGE_LOOP('',(#712,#718,#719,#727));
#712 = ORIENTED_EDGE('',*,*,#713,.F.);
#713 = EDGE_CURVE('',#314,#422,#714,.T.);
#714 = LINE('',#715,#716);
#715 = CARTESIAN_POINT('',(-18.6,75.,0.));
#716 = VECTOR('',#717,1.);
#717 = DIRECTION('',(0.,0.,1.));
#718 = ORIENTED_EDGE('',*,*,#321,.F.);
#719 = ORIENTED_EDGE('',*,*,#720,.T.);
#720 = EDGE_CURVE('',#305,#721,#723,.T.);
#721 = VERTEX_POINT('',#722);
#722 = CARTESIAN_POINT('',(-50.2,75.,2.));
#723 = LINE('',#724,#725);
#724 = CARTESIAN_POINT('',(-50.2,75.,0.));
#725 = VECTOR('',#726,1.);
#726 = DIRECTION('',(0.,0.,1.));
#727 = ORIENTED_EDGE('',*,*,#728,.T.);
#728 = EDGE_CURVE('',#721,#422,#729,.T.);
#729 = LINE('',#730,#731);
#730 = CARTESIAN_POINT('',(-50.2,75.,2.));
#731 = VECTOR('',#732,1.);
#732 = DIRECTION('',(1.,0.,0.));
#733 = PLANE('',#734);
#734 = AXIS2_PLACEMENT_3D('',#735,#736,#737);
#735 = CARTESIAN_POINT('',(-75.2,75.,0.));
#736 = DIRECTION('',(0.,1.,0.));
#737 = DIRECTION('',(0.,0.,1.));
#738 = ADVANCED_FACE('',(#739),#775,.F.);
#739 = FACE_BOUND('',#740,.F.);
#740 = EDGE_LOOP('',(#741,#749,#758,#766,#773,#774));
#741 = ORIENTED_EDGE('',*,*,#742,.F.);
#742 = EDGE_CURVE('',#743,#683,#745,.T.);
#743 = VERTEX_POINT('',#744);
#744 = CARTESIAN_POINT('',(-60.2,57.6,0.));
#745 = LINE('',#746,#747);
#746 = CARTESIAN_POINT('',(-60.2,54.6,0.));
#747 = VECTOR('',#748,1.);
#748 = DIRECTION('',(0.,1.,0.));
#749 = ORIENTED_EDGE('',*,*,#750,.T.);
#750 = EDGE_CURVE('',#743,#751,#753,.T.);
#751 = VERTEX_POINT('',#752);
#752 = CARTESIAN_POINT('',(-57.2,54.6,0.));
#753 = CIRCLE('',#754,3.);
#754 = AXIS2_PLACEMENT_3D('',#755,#756,#757);
#755 = CARTESIAN_POINT('',(-57.2,57.6,0.));
#756 = DIRECTION('',(-0.,0.,1.));
#757 = DIRECTION('',(0.,-1.,0.));
#758 = ORIENTED_EDGE('',*,*,#759,.T.);
#759 = EDGE_CURVE('',#751,#760,#762,.T.);
#760 = VERTEX_POINT('',#761);
#761 = CARTESIAN_POINT('',(-53.2,54.6,0.));
#762 = LINE('',#763,#764);
#763 = CARTESIAN_POINT('',(-60.2,54.6,0.));
#764 = VECTOR('',#765,1.);
#765 = DIRECTION('',(1.,0.,0.));
#766 = ORIENTED_EDGE('',*,*,#767,.F.);
#767 = EDGE_CURVE('',#361,#760,#768,.T.);
#768 = CIRCLE('',#769,3.);
#769 = AXIS2_PLACEMENT_3D('',#770,#771,#772);
#770 = CARTESIAN_POINT('',(-53.2,57.6,0.));
#771 = DIRECTION('',(-0.,-0.,-1.));
#772 = DIRECTION('',(0.,-1.,0.));
#773 = ORIENTED_EDGE('',*,*,#368,.T.);
#774 = ORIENTED_EDGE('',*,*,#692,.F.);
#775 = PLANE('',#776);
#776 = AXIS2_PLACEMENT_3D('',#777,#778,#779);
#777 = CARTESIAN_POINT('',(-60.2,54.6,0.));
#778 = DIRECTION('',(0.,0.,1.));
#779 = DIRECTION('',(1.,0.,0.));
#780 = ADVANCED_FACE('',(#781),#800,.T.);
#781 = FACE_BOUND('',#782,.F.);
#782 = EDGE_LOOP('',(#783,#784,#792,#799));
#783 = ORIENTED_EDGE('',*,*,#767,.T.);
#784 = ORIENTED_EDGE('',*,*,#785,.T.);
#785 = EDGE_CURVE('',#760,#786,#788,.T.);
#786 = VERTEX_POINT('',#787);
#787 = CARTESIAN_POINT('',(-53.2,54.6,12.));
#788 = LINE('',#789,#790);
#789 = CARTESIAN_POINT('',(-53.2,54.6,0.));
#790 = VECTOR('',#791,1.);
#791 = DIRECTION('',(0.,0.,1.));
#792 = ORIENTED_EDGE('',*,*,#793,.F.);
#793 = EDGE_CURVE('',#353,#786,#794,.T.);
#794 = CIRCLE('',#795,3.);
#795 = AXIS2_PLACEMENT_3D('',#796,#797,#798);
#796 = CARTESIAN_POINT('',(-53.2,57.6,12.));
#797 = DIRECTION('',(-0.,-0.,-1.));
#798 = DIRECTION('',(0.,-1.,0.));
#799 = ORIENTED_EDGE('',*,*,#360,.F.);
#800 = CYLINDRICAL_SURFACE('',#801,3.);
#801 = AXIS2_PLACEMENT_3D('',#802,#803,#804);
#802 = CARTESIAN_POINT('',(-53.2,57.6,0.));
#803 = DIRECTION('',(0.,0.,1.));
#804 = DIRECTION('',(1.,0.,0.));
#805 = ADVANCED_FACE('',(#806),#841,.T.);
#806 = FACE_BOUND('',#807,.T.);
#807 = EDGE_LOOP('',(#808,#818,#827,#833,#834,#835));
#808 = ORIENTED_EDGE('',*,*,#809,.F.);
#809 = EDGE_CURVE('',#810,#812,#814,.T.);
#810 = VERTEX_POINT('',#811);
#811 = CARTESIAN_POINT('',(-60.2,57.6,12.));
#812 = VERTEX_POINT('',#813);
#813 = CARTESIAN_POINT('',(-60.2,65.,12.));
#814 = LINE('',#815,#816);
#815 = CARTESIAN_POINT('',(-60.2,54.6,12.));
#816 = VECTOR('',#817,1.);
#817 = DIRECTION('',(0.,1.,0.));
#818 = ORIENTED_EDGE('',*,*,#819,.T.);
#819 = EDGE_CURVE('',#810,#820,#822,.T.);
#820 = VERTEX_POINT('',#821);
#821 = CARTESIAN_POINT('',(-57.2,54.6,12.));
#822 = CIRCLE('',#823,3.);
#823 = AXIS2_PLACEMENT_3D('',#824,#825,#826);
#824 = CARTESIAN_POINT('',(-57.2,57.6,12.));
#825 = DIRECTION('',(-0.,0.,1.));
#826 = DIRECTION('',(0.,-1.,0.));
#827 = ORIENTED_EDGE('',*,*,#828,.T.);
#828 = EDGE_CURVE('',#820,#786,#829,.T.);
#829 = LINE('',#830,#831);
#830 = CARTESIAN_POINT('',(-60.2,54.6,12.));
#831 = VECTOR('',#832,1.);
#832 = DIRECTION('',(1.,0.,0.));
#833 = ORIENTED_EDGE('',*,*,#793,.F.);
#834 = ORIENTED_EDGE('',*,*,#352,.T.);
#835 = ORIENTED_EDGE('',*,*,#836,.F.);
#836 = EDGE_CURVE('',#812,#345,#837,.T.);
#837 = LINE('',#838,#839);
#838 = CARTESIAN_POINT('',(-75.2,65.,12.));
#839 = VECTOR('',#840,1.);
#840 = DIRECTION('',(1.,0.,0.));
#841 = PLANE('',#842);
#842 = AXIS2_PLACEMENT_3D('',#843,#844,#845);
#843 = CARTESIAN_POINT('',(-60.2,54.6,12.));
#844 = DIRECTION('',(0.,0.,1.));
#845 = DIRECTION('',(1.,0.,0.));
#846 = ADVANCED_FACE('',(#847),#859,.T.);
#847 = FACE_BOUND('',#848,.T.);
#848 = EDGE_LOOP('',(#849,#850,#856,#857,#858));
#849 = ORIENTED_EDGE('',*,*,#382,.T.);
#850 = ORIENTED_EDGE('',*,*,#851,.F.);
#851 = EDGE_CURVE('',#561,#385,#852,.T.);
#852 = LINE('',#853,#854);
#853 = CARTESIAN_POINT('',(-8.6,75.,0.));
#854 = VECTOR('',#855,1.);
#855 = DIRECTION('',(0.,0.,1.));
#856 = ORIENTED_EDGE('',*,*,#568,.F.);
#857 = ORIENTED_EDGE('',*,*,#713,.T.);
#858 = ORIENTED_EDGE('',*,*,#435,.T.);
#859 = PLANE('',#860);
#860 = AXIS2_PLACEMENT_3D('',#861,#862,#863);
#861 = CARTESIAN_POINT('',(-75.2,75.,0.));
#862 = DIRECTION('',(0.,1.,0.));
#863 = DIRECTION('',(0.,0.,1.));
#864 = ADVANCED_FACE('',(#865),#890,.T.);
#865 = FACE_BOUND('',#866,.T.);
#866 = EDGE_LOOP('',(#867,#875,#876,#884));
#867 = ORIENTED_EDGE('',*,*,#868,.F.);
#868 = EDGE_CURVE('',#385,#869,#871,.T.);
#869 = VERTEX_POINT('',#870);
#870 = CARTESIAN_POINT('',(1.41,75.,4.));
#871 = LINE('',#872,#873);
#872 = CARTESIAN_POINT('',(-75.2,75.,4.));
#873 = VECTOR('',#874,1.);
#874 = DIRECTION('',(1.,0.,0.));
#875 = ORIENTED_EDGE('',*,*,#407,.T.);
#876 = ORIENTED_EDGE('',*,*,#877,.T.);
#877 = EDGE_CURVE('',#400,#878,#880,.T.);
#878 = VERTEX_POINT('',#879);
#879 = CARTESIAN_POINT('',(1.41,75.,12.));
#880 = LINE('',#881,#882);
#881 = CARTESIAN_POINT('',(-18.6,75.,12.));
#882 = VECTOR('',#883,1.);
#883 = DIRECTION('',(1.,0.,0.));
#884 = ORIENTED_EDGE('',*,*,#885,.F.);
#885 = EDGE_CURVE('',#869,#878,#886,.T.);
#886 = LINE('',#887,#888);
#887 = CARTESIAN_POINT('',(1.41,75.,4.));
#888 = VECTOR('',#889,1.);
#889 = DIRECTION('',(0.,0.,1.));
#890 = PLANE('',#891);
#891 = AXIS2_PLACEMENT_3D('',#892,#893,#894);
#892 = CARTESIAN_POINT('',(-18.6,75.,0.));
#893 = DIRECTION('',(0.,1.,0.));
#894 = DIRECTION('',(0.,0.,1.));
#895 = ADVANCED_FACE('',(#896),#911,.T.);
#896 = FACE_BOUND('',#897,.F.);
#897 = EDGE_LOOP('',(#898,#908,#909,#910));
#898 = ORIENTED_EDGE('',*,*,#899,.T.);
#899 = EDGE_CURVE('',#535,#721,#900,.T.);
#900 = ( BOUNDED_CURVE() B_SPLINE_CURVE(6,(#901,#902,#903,#904,#905,#906
,#907),.UNSPECIFIED.,.F.,.F.) B_SPLINE_CURVE_WITH_KNOTS((7,7),(0.,
1.570796326795),.PIECEWISE_BEZIER_KNOTS.) CURVE() 
GEOMETRIC_REPRESENTATION_ITEM() RATIONAL_B_SPLINE_CURVE((1.031393471788,
    1.010025407661,0.997924642725,0.993958444137,0.997924642725,
1.010025407661,1.031393471788)) REPRESENTATION_ITEM('') );
#901 = CARTESIAN_POINT('',(-50.2,73.,4.));
#902 = CARTESIAN_POINT('',(-50.2,73.534673566306,4.));
#903 = CARTESIAN_POINT('',(-50.2,74.055417145164,3.829991298733));
#904 = CARTESIAN_POINT('',(-50.2,74.503839026405,3.503839026405));
#905 = CARTESIAN_POINT('',(-50.2,74.829991298733,3.055417145164));
#906 = CARTESIAN_POINT('',(-50.2,75.,2.534673566306));
#907 = CARTESIAN_POINT('',(-50.2,75.,2.));
#908 = ORIENTED_EDGE('',*,*,#728,.T.);
#909 = ORIENTED_EDGE('',*,*,#421,.F.);
#910 = ORIENTED_EDGE('',*,*,#544,.F.);
#911 = CYLINDRICAL_SURFACE('',#912,2.);
#912 = AXIS2_PLACEMENT_3D('',#913,#914,#915);
#913 = CARTESIAN_POINT('',(-50.2,73.,2.));
#914 = DIRECTION('',(1.,0.,0.));
#915 = DIRECTION('',(0.,0.,1.));
#916 = ADVANCED_FACE('',(#917,#953),#964,.T.);
#917 = FACE_BOUND('',#918,.T.);
#918 = EDGE_LOOP('',(#919,#920,#921,#929,#938,#946));
#919 = ORIENTED_EDGE('',*,*,#877,.F.);
#920 = ORIENTED_EDGE('',*,*,#519,.F.);
#921 = ORIENTED_EDGE('',*,*,#922,.T.);
#922 = EDGE_CURVE('',#258,#923,#925,.T.);
#923 = VERTEX_POINT('',#924);
#924 = CARTESIAN_POINT('',(1.41,65.,12.));
#925 = LINE('',#926,#927);
#926 = CARTESIAN_POINT('',(-18.6,65.,12.));
#927 = VECTOR('',#928,1.);
#928 = DIRECTION('',(1.,0.,0.));
#929 = ORIENTED_EDGE('',*,*,#930,.F.);
#930 = EDGE_CURVE('',#931,#923,#933,.T.);
#931 = VERTEX_POINT('',#932);
#932 = CARTESIAN_POINT('',(6.4,69.99,12.));
#933 = CIRCLE('',#934,4.99);
#934 = AXIS2_PLACEMENT_3D('',#935,#936,#937);
#935 = CARTESIAN_POINT('',(1.41,69.99,12.));
#936 = DIRECTION('',(-0.,-0.,-1.));
#937 = DIRECTION('',(0.,-1.,0.));
#938 = ORIENTED_EDGE('',*,*,#939,.T.);
#939 = EDGE_CURVE('',#931,#940,#942,.T.);
#940 = VERTEX_POINT('',#941);
#941 = CARTESIAN_POINT('',(6.4,70.01,12.));
#942 = LINE('',#943,#944);
#943 = CARTESIAN_POINT('',(6.4,65.,12.));
#944 = VECTOR('',#945,1.);
#945 = DIRECTION('',(0.,1.,0.));
#946 = ORIENTED_EDGE('',*,*,#947,.F.);
#947 = EDGE_CURVE('',#878,#940,#948,.T.);
#948 = CIRCLE('',#949,4.99);
#949 = AXIS2_PLACEMENT_3D('',#950,#951,#952);
#950 = CARTESIAN_POINT('',(1.41,70.01,12.));
#951 = DIRECTION('',(-0.,-0.,-1.));
#952 = DIRECTION('',(0.,-1.,0.));
#953 = FACE_BOUND('',#954,.T.);
#954 = EDGE_LOOP('',(#955));
#955 = ORIENTED_EDGE('',*,*,#956,.F.);
#956 = EDGE_CURVE('',#957,#957,#959,.T.);
#957 = VERTEX_POINT('',#958);
#958 = CARTESIAN_POINT('',(3.4,70.,12.));
#959 = CIRCLE('',#960,2.);
#960 = AXIS2_PLACEMENT_3D('',#961,#962,#963);
#961 = CARTESIAN_POINT('',(1.4,70.,12.));
#962 = DIRECTION('',(0.,0.,1.));
#963 = DIRECTION('',(1.,0.,0.));
#964 = PLANE('',#965);
#965 = AXIS2_PLACEMENT_3D('',#966,#967,#968);
#966 = CARTESIAN_POINT('',(-18.6,65.,12.));
#967 = DIRECTION('',(0.,0.,1.));
#968 = DIRECTION('',(1.,0.,0.));
#969 = ADVANCED_FACE('',(#970,#1013),#1024,.F.);
#970 = FACE_BOUND('',#971,.F.);
#971 = EDGE_LOOP('',(#972,#980,#981,#989,#998,#1006));
#972 = ORIENTED_EDGE('',*,*,#973,.F.);
#973 = EDGE_CURVE('',#561,#974,#976,.T.);
#974 = VERTEX_POINT('',#975);
#975 = CARTESIAN_POINT('',(1.41,75.,0.));
#976 = LINE('',#977,#978);
#977 = CARTESIAN_POINT('',(-75.2,75.,0.));
#978 = VECTOR('',#979,1.);
#979 = DIRECTION('',(1.,0.,0.));
#980 = ORIENTED_EDGE('',*,*,#560,.F.);
#981 = ORIENTED_EDGE('',*,*,#982,.T.);
#982 = EDGE_CURVE('',#192,#983,#985,.T.);
#983 = VERTEX_POINT('',#984);
#984 = CARTESIAN_POINT('',(1.41,65.,0.));
#985 = LINE('',#986,#987);
#986 = CARTESIAN_POINT('',(-75.2,65.,0.));
#987 = VECTOR('',#988,1.);
#988 = DIRECTION('',(1.,0.,0.));
#989 = ORIENTED_EDGE('',*,*,#990,.F.);
#990 = EDGE_CURVE('',#991,#983,#993,.T.);
#991 = VERTEX_POINT('',#992);
#992 = CARTESIAN_POINT('',(6.4,69.99,0.));
#993 = CIRCLE('',#994,4.99);
#994 = AXIS2_PLACEMENT_3D('',#995,#996,#997);
#995 = CARTESIAN_POINT('',(1.41,69.99,0.));
#996 = DIRECTION('',(-0.,-0.,-1.));
#997 = DIRECTION('',(0.,-1.,0.));
#998 = ORIENTED_EDGE('',*,*,#999,.T.);
#999 = EDGE_CURVE('',#991,#1000,#1002,.T.);
#1000 = VERTEX_POINT('',#1001);
#1001 = CARTESIAN_POINT('',(6.4,70.01,0.));
#1002 = LINE('',#1003,#1004);
#1003 = CARTESIAN_POINT('',(6.4,65.,0.));
#1004 = VECTOR('',#1005,1.);
#1005 = DIRECTION('',(0.,1.,0.));
#1006 = ORIENTED_EDGE('',*,*,#1007,.F.);
#1007 = EDGE_CURVE('',#974,#1000,#1008,.T.);
#1008 = CIRCLE('',#1009,4.99);
#1009 = AXIS2_PLACEMENT_3D('',#1010,#1011,#1012);
#1010 = CARTESIAN_POINT('',(1.41,70.01,0.));
#1011 = DIRECTION('',(-0.,-0.,-1.));
#1012 = DIRECTION('',(0.,-1.,0.));
#1013 = FACE_BOUND('',#1014,.F.);
#1014 = EDGE_LOOP('',(#1015));
#1015 = ORIENTED_EDGE('',*,*,#1016,.F.);
#1016 = EDGE_CURVE('',#1017,#1017,#1019,.T.);
#1017 = VERTEX_POINT('',#1018);
#1018 = CARTESIAN_POINT('',(3.4,70.,0.));
#1019 = CIRCLE('',#1020,2.);
#1020 = AXIS2_PLACEMENT_3D('',#1021,#1022,#1023);
#1021 = CARTESIAN_POINT('',(1.4,70.,0.));
#1022 = DIRECTION('',(0.,0.,1.));
#1023 = DIRECTION('',(1.,0.,0.));
#1024 = PLANE('',#1025);
#1025 = AXIS2_PLACEMENT_3D('',#1026,#1027,#1028);
#1026 = CARTESIAN_POINT('',(-75.2,65.,0.));
#1027 = DIRECTION('',(0.,0.,1.));
#1028 = DIRECTION('',(1.,0.,0.));
#1029 = ADVANCED_FACE('',(#1030),#1048,.F.);
#1030 = FACE_BOUND('',#1031,.F.);
#1031 = EDGE_LOOP('',(#1032,#1040,#1041,#1042));
#1032 = ORIENTED_EDGE('',*,*,#1033,.F.);
#1033 = EDGE_CURVE('',#608,#1034,#1036,.T.);
#1034 = VERTEX_POINT('',#1035);
#1035 = CARTESIAN_POINT('',(1.41,65.,4.));
#1036 = LINE('',#1037,#1038);
#1037 = CARTESIAN_POINT('',(-75.2,65.,4.));
#1038 = VECTOR('',#1039,1.);
#1039 = DIRECTION('',(1.,0.,0.));
#1040 = ORIENTED_EDGE('',*,*,#615,.F.);
#1041 = ORIENTED_EDGE('',*,*,#922,.T.);
#1042 = ORIENTED_EDGE('',*,*,#1043,.F.);
#1043 = EDGE_CURVE('',#1034,#923,#1044,.T.);
#1044 = LINE('',#1045,#1046);
#1045 = CARTESIAN_POINT('',(1.41,65.,4.));
#1046 = VECTOR('',#1047,1.);
#1047 = DIRECTION('',(0.,0.,1.));
#1048 = PLANE('',#1049);
#1049 = AXIS2_PLACEMENT_3D('',#1050,#1051,#1052);
#1050 = CARTESIAN_POINT('',(-18.6,65.,0.));
#1051 = DIRECTION('',(0.,1.,0.));
#1052 = DIRECTION('',(0.,0.,1.));
#1053 = ADVANCED_FACE('',(#1054),#1065,.F.);
#1054 = FACE_BOUND('',#1055,.F.);
#1055 = EDGE_LOOP('',(#1056,#1057,#1058,#1059));
#1056 = ORIENTED_EDGE('',*,*,#982,.F.);
#1057 = ORIENTED_EDGE('',*,*,#607,.F.);
#1058 = ORIENTED_EDGE('',*,*,#1033,.T.);
#1059 = ORIENTED_EDGE('',*,*,#1060,.F.);
#1060 = EDGE_CURVE('',#983,#1034,#1061,.T.);
#1061 = LINE('',#1062,#1063);
#1062 = CARTESIAN_POINT('',(1.41,65.,0.));
#1063 = VECTOR('',#1064,1.);
#1064 = DIRECTION('',(0.,0.,1.));
#1065 = PLANE('',#1066);
#1066 = AXIS2_PLACEMENT_3D('',#1067,#1068,#1069);
#1067 = CARTESIAN_POINT('',(-75.2,65.,0.));
#1068 = DIRECTION('',(0.,1.,0.));
#1069 = DIRECTION('',(0.,0.,1.));
#1070 = ADVANCED_FACE('',(#1071),#1104,.T.);
#1071 = FACE_BOUND('',#1072,.T.);
#1072 = EDGE_LOOP('',(#1073,#1083,#1091,#1097,#1098));
#1073 = ORIENTED_EDGE('',*,*,#1074,.F.);
#1074 = EDGE_CURVE('',#1075,#1077,#1079,.T.);
#1075 = VERTEX_POINT('',#1076);
#1076 = CARTESIAN_POINT('',(-60.2,75.,4.));
#1077 = VERTEX_POINT('',#1078);
#1078 = CARTESIAN_POINT('',(-50.2,75.,4.));
#1079 = LINE('',#1080,#1081);
#1080 = CARTESIAN_POINT('',(-75.2,75.,4.));
#1081 = VECTOR('',#1082,1.);
#1082 = DIRECTION('',(1.,0.,0.));
#1083 = ORIENTED_EDGE('',*,*,#1084,.T.);
#1084 = EDGE_CURVE('',#1075,#1085,#1087,.T.);
#1085 = VERTEX_POINT('',#1086);
#1086 = CARTESIAN_POINT('',(-60.2,75.,12.));
#1087 = LINE('',#1088,#1089);
#1088 = CARTESIAN_POINT('',(-60.2,75.,0.));
#1089 = VECTOR('',#1090,1.);
#1090 = DIRECTION('',(0.,0.,1.));
#1091 = ORIENTED_EDGE('',*,*,#1092,.T.);
#1092 = EDGE_CURVE('',#1085,#644,#1093,.T.);
#1093 = LINE('',#1094,#1095);
#1094 = CARTESIAN_POINT('',(-75.2,75.,12.));
#1095 = VECTOR('',#1096,1.);
#1096 = DIRECTION('',(1.,0.,0.));
#1097 = ORIENTED_EDGE('',*,*,#641,.F.);
#1098 = ORIENTED_EDGE('',*,*,#1099,.F.);
#1099 = EDGE_CURVE('',#1077,#642,#1100,.T.);
#1100 = LINE('',#1101,#1102);
#1101 = CARTESIAN_POINT('',(-50.2,75.,4.));
#1102 = VECTOR('',#1103,1.);
#1103 = DIRECTION('',(0.,0.,1.));
#1104 = PLANE('',#1105);
#1105 = AXIS2_PLACEMENT_3D('',#1106,#1107,#1108);
#1106 = CARTESIAN_POINT('',(-75.2,75.,0.));
#1107 = DIRECTION('',(0.,1.,0.));
#1108 = DIRECTION('',(0.,0.,1.));
#1109 = ADVANCED_FACE('',(#1110),#1121,.F.);
#1110 = FACE_BOUND('',#1111,.F.);
#1111 = EDGE_LOOP('',(#1112,#1113,#1114,#1115));
#1112 = ORIENTED_EDGE('',*,*,#899,.F.);
#1113 = ORIENTED_EDGE('',*,*,#661,.F.);
#1114 = ORIENTED_EDGE('',*,*,#1099,.F.);
#1115 = ORIENTED_EDGE('',*,*,#1116,.F.);
#1116 = EDGE_CURVE('',#721,#1077,#1117,.T.);
#1117 = LINE('',#1118,#1119);
#1118 = CARTESIAN_POINT('',(-50.2,75.,2.));
#1119 = VECTOR('',#1120,1.);
#1120 = DIRECTION('',(0.,0.,1.));
#1121 = B_SPLINE_SURFACE_WITH_KNOTS('',8,7,(
    (#1122,#1123,#1124,#1125,#1126,#1127,#1128,#1129)
    ,(#1130,#1131,#1132,#1133,#1134,#1135,#1136,#1137)
    ,(#1138,#1139,#1140,#1141,#1142,#1143,#1144,#1145)
    ,(#1146,#1147,#1148,#1149,#1150,#1151,#1152,#1153)
    ,(#1154,#1155,#1156,#1157,#1158,#1159,#1160,#1161)
    ,(#1162,#1163,#1164,#1165,#1166,#1167,#1168,#1169)
    ,(#1170,#1171,#1172,#1173,#1174,#1175,#1176,#1177)
    ,(#1178,#1179,#1180,#1181,#1182,#1183,#1184,#1185)
    ,(#1186,#1187,#1188,#1189,#1190,#1191,#1192,#1193
  )),.UNSPECIFIED.,.F.,.F.,.F.,(9,9),(8,8),(-2.197126739646,
    2.202861930379),(-1.801885693187,0.403101227656),
  .PIECEWISE_BEZIER_KNOTS.);
#1122 = CARTESIAN_POINT('',(-50.2,72.830960947192,1.805861844694));
#1123 = CARTESIAN_POINT('',(-50.2,73.146111433522,1.804901458797));
#1124 = CARTESIAN_POINT('',(-50.2,73.461244885673,1.80394663477));
#1125 = CARTESIAN_POINT('',(-50.2,73.776309954645,1.803089097903));
#1126 = CARTESIAN_POINT('',(-50.19999999999,74.091309629628,
    1.802326576776));
#1127 = CARTESIAN_POINT('',(-50.2,74.406275756608,1.801609212853));
#1128 = CARTESIAN_POINT('',(-50.2,74.721243556884,1.800885970069));
#1129 = CARTESIAN_POINT('',(-50.2,75.036226145676,1.800151044425));
#1130 = CARTESIAN_POINT('',(-50.2,72.832224883259,2.355708513736));
#1131 = CARTESIAN_POINT('',(-50.19999999999,73.147352986605,
    2.354785107912));
#1132 = CARTESIAN_POINT('',(-50.2,73.462450914456,2.35386027576));
#1133 = CARTESIAN_POINT('',(-50.19999999998,73.777599260623,
    2.352992766622));
#1134 = CARTESIAN_POINT('',(-50.20000000001,74.092417393285,
    2.352342065414));
#1135 = CARTESIAN_POINT('',(-50.19999999999,74.407508280062,
    2.351588287976));
#1136 = CARTESIAN_POINT('',(-50.2,74.722413503742,2.350918760752));
#1137 = CARTESIAN_POINT('',(-50.2,75.03738292071,2.350210426806));
#1138 = CARTESIAN_POINT('',(-50.2,72.833500378093,2.905554632578));
#1139 = CARTESIAN_POINT('',(-50.2,73.148604949922,2.904672809231));
#1140 = CARTESIAN_POINT('',(-50.19999999997,73.463878392546,
    2.90396306522));
#1141 = CARTESIAN_POINT('',(-50.20000000004,73.778116075631,
    2.902632546658));
#1142 = CARTESIAN_POINT('',(-50.19999999995,74.094542815008,
    2.902927767633));
#1143 = CARTESIAN_POINT('',(-50.20000000002,74.407955281303,
    2.901200037242));
#1144 = CARTESIAN_POINT('',(-50.19999999999,74.724074851078,
    2.900815249063));
#1145 = CARTESIAN_POINT('',(-50.2,75.038839871671,2.900251929849));
#1146 = CARTESIAN_POINT('',(-50.19999999999,72.83480329619,
    3.455390456747));
#1147 = CARTESIAN_POINT('',(-50.19999999998,73.149865832888,
    3.454574404018));
#1148 = CARTESIAN_POINT('',(-50.20000000004,73.464554868546,
    3.453538046713));
#1149 = CARTESIAN_POINT('',(-50.19999999992,73.781722346938,
    3.452478306069));
#1150 = CARTESIAN_POINT('',(-50.20000000007,74.092903975079,
    3.452086804975));
#1151 = CARTESIAN_POINT('',(-50.19999999995,74.411521312183,
    3.452041040546));
#1152 = CARTESIAN_POINT('',(-50.20000000001,74.724074930028,
    3.450984118366));
#1153 = CARTESIAN_POINT('',(-50.19999999999,75.039513658107,
    3.450032241284));
#1154 = CARTESIAN_POINT('',(-50.2,72.836147938176,4.005206168461));
#1155 = CARTESIAN_POINT('',(-50.20000000001,73.151153375556,
    4.004474792396));
#1156 = CARTESIAN_POINT('',(-50.19999999994,73.466548008282,
    4.003716312123));
#1157 = CARTESIAN_POINT('',(-50.20000000009,73.780052213242,
    4.003221441314));
#1158 = CARTESIAN_POINT('',(-50.1999999999,74.09777458281,4.002372743438
    ));
#1159 = CARTESIAN_POINT('',(-50.20000000005,74.409630758652,
    4.001571700492));
#1160 = CARTESIAN_POINT('',(-50.19999999998,74.727170431331,
    4.000670257182));
#1161 = CARTESIAN_POINT('',(-50.2,75.041751880318,4.000168048071));
#1162 = CARTESIAN_POINT('',(-50.19999999999,72.837547040781,
    4.554991876626));
#1163 = CARTESIAN_POINT('',(-50.19999999998,73.152494229573,
    4.554346212176));
#1164 = CARTESIAN_POINT('',(-50.20000000004,73.467171497864,
    4.553992440859));
#1165 = CARTESIAN_POINT('',(-50.19999999992,73.782624119236,
    4.553335708816));
#1166 = CARTESIAN_POINT('',(-50.20000000007,74.096283866815,
    4.552849301534));
#1167 = CARTESIAN_POINT('',(-50.19999999995,74.413729196827,
    4.550853525151));
#1168 = CARTESIAN_POINT('',(-50.20000000001,74.726842035071,
    4.551099191219));
#1169 = CARTESIAN_POINT('',(-50.19999999999,75.041943500893,
    4.550319984182));
#1170 = CARTESIAN_POINT('',(-50.2,72.839011776874,5.104737616838));
#1171 = CARTESIAN_POINT('',(-50.2,73.153913640083,5.104160517634));
#1172 = CARTESIAN_POINT('',(-50.19999999997,73.469068273036,
    5.103298331457));
#1173 = CARTESIAN_POINT('',(-50.20000000004,73.782903384639,
    5.10388593136));
#1174 = CARTESIAN_POINT('',(-50.19999999995,74.100057761086,
    5.100952145507));
#1175 = CARTESIAN_POINT('',(-50.20000000002,74.412572422126,
    5.102632844787));
#1176 = CARTESIAN_POINT('',(-50.19999999999,74.728786823771,
    5.100825812162));
#1177 = CARTESIAN_POINT('',(-50.2,75.043964956267,5.100002188314));
#1178 = CARTESIAN_POINT('',(-50.2,72.840551755425,5.654433351379));
#1179 = CARTESIAN_POINT('',(-50.19999999999,73.155425126676,
    5.65390145835));
#1180 = CARTESIAN_POINT('',(-50.2,73.470266150897,5.653431587609));
#1181 = CARTESIAN_POINT('',(-50.19999999998,73.785231444148,
    5.652753308091));
#1182 = CARTESIAN_POINT('',(-50.20000000001,74.100039233063,
    5.65233167894));
#1183 = CARTESIAN_POINT('',(-50.19999999999,74.415082272008,
    5.651413059461));
#1184 = CARTESIAN_POINT('',(-50.2,74.729997217477,5.650838962389));
#1185 = CARTESIAN_POINT('',(-50.2,75.04485455921,5.650215888077));
#1186 = CARTESIAN_POINT('',(-50.2,72.842175021539,6.204068969224));
#1187 = CARTESIAN_POINT('',(-50.2,73.157020165057,6.20357695799));
#1188 = CARTESIAN_POINT('',(-50.2,73.471836118185,6.203133779825));
#1189 = CARTESIAN_POINT('',(-50.2,73.786787325425,6.202477316132));
#1190 = CARTESIAN_POINT('',(-50.19999999999,74.101514378727,
    6.202139560352));
#1191 = CARTESIAN_POINT('',(-50.2,74.416582290769,6.201226588349));
#1192 = CARTESIAN_POINT('',(-50.2,74.731382345452,6.200735299298));
#1193 = CARTESIAN_POINT('',(-50.2,75.046148530272,6.200182105023));
#1194 = ADVANCED_FACE('',(#1195),#1206,.T.);
#1195 = FACE_BOUND('',#1196,.T.);
#1196 = EDGE_LOOP('',(#1197,#1198,#1204,#1205));
#1197 = ORIENTED_EDGE('',*,*,#1092,.F.);
#1198 = ORIENTED_EDGE('',*,*,#1199,.F.);
#1199 = EDGE_CURVE('',#812,#1085,#1200,.T.);
#1200 = LINE('',#1201,#1202);
#1201 = CARTESIAN_POINT('',(-60.2,54.6,12.));
#1202 = VECTOR('',#1203,1.);
#1203 = DIRECTION('',(0.,1.,0.));
#1204 = ORIENTED_EDGE('',*,*,#836,.T.);
#1205 = ORIENTED_EDGE('',*,*,#651,.T.);
#1206 = PLANE('',#1207);
#1207 = AXIS2_PLACEMENT_3D('',#1208,#1209,#1210);
#1208 = CARTESIAN_POINT('',(-75.2,65.,12.));
#1209 = DIRECTION('',(0.,0.,1.));
#1210 = DIRECTION('',(1.,0.,0.));
#1211 = ADVANCED_FACE('',(#1212,#1255),#1266,.F.);
#1212 = FACE_BOUND('',#1213,.F.);
#1213 = EDGE_LOOP('',(#1214,#1224,#1233,#1239,#1240,#1248));
#1214 = ORIENTED_EDGE('',*,*,#1215,.F.);
#1215 = EDGE_CURVE('',#1216,#1218,#1220,.T.);
#1216 = VERTEX_POINT('',#1217);
#1217 = CARTESIAN_POINT('',(-75.2,69.99,0.));
#1218 = VERTEX_POINT('',#1219);
#1219 = CARTESIAN_POINT('',(-75.2,70.01,0.));
#1220 = LINE('',#1221,#1222);
#1221 = CARTESIAN_POINT('',(-75.2,65.,0.));
#1222 = VECTOR('',#1223,1.);
#1223 = DIRECTION('',(0.,1.,0.));
#1224 = ORIENTED_EDGE('',*,*,#1225,.T.);
#1225 = EDGE_CURVE('',#1216,#1226,#1228,.T.);
#1226 = VERTEX_POINT('',#1227);
#1227 = CARTESIAN_POINT('',(-70.21,65.,0.));
#1228 = CIRCLE('',#1229,4.99);
#1229 = AXIS2_PLACEMENT_3D('',#1230,#1231,#1232);
#1230 = CARTESIAN_POINT('',(-70.21,69.99,0.));
#1231 = DIRECTION('',(-0.,0.,1.));
#1232 = DIRECTION('',(0.,-1.,0.));
#1233 = ORIENTED_EDGE('',*,*,#1234,.T.);
#1234 = EDGE_CURVE('',#1226,#683,#1235,.T.);
#1235 = LINE('',#1236,#1237);
#1236 = CARTESIAN_POINT('',(-75.2,65.,0.));
#1237 = VECTOR('',#1238,1.);
#1238 = DIRECTION('',(1.,0.,0.));
#1239 = ORIENTED_EDGE('',*,*,#682,.T.);
#1240 = ORIENTED_EDGE('',*,*,#1241,.F.);
#1241 = EDGE_CURVE('',#1242,#685,#1244,.T.);
#1242 = VERTEX_POINT('',#1243);
#1243 = CARTESIAN_POINT('',(-70.21,75.,0.));
#1244 = LINE('',#1245,#1246);
#1245 = CARTESIAN_POINT('',(-75.2,75.,0.));
#1246 = VECTOR('',#1247,1.);
#1247 = DIRECTION('',(1.,0.,0.));
#1248 = ORIENTED_EDGE('',*,*,#1249,.F.);
#1249 = EDGE_CURVE('',#1218,#1242,#1250,.T.);
#1250 = CIRCLE('',#1251,4.99);
#1251 = AXIS2_PLACEMENT_3D('',#1252,#1253,#1254);
#1252 = CARTESIAN_POINT('',(-70.21,70.01,0.));
#1253 = DIRECTION('',(-0.,-0.,-1.));
#1254 = DIRECTION('',(0.,-1.,0.));
#1255 = FACE_BOUND('',#1256,.F.);
#1256 = EDGE_LOOP('',(#1257));
#1257 = ORIENTED_EDGE('',*,*,#1258,.F.);
#1258 = EDGE_CURVE('',#1259,#1259,#1261,.T.);
#1259 = VERTEX_POINT('',#1260);
#1260 = CARTESIAN_POINT('',(-68.2,70.,0.));
#1261 = CIRCLE('',#1262,2.);
#1262 = AXIS2_PLACEMENT_3D('',#1263,#1264,#1265);
#1263 = CARTESIAN_POINT('',(-70.2,70.,0.));
#1264 = DIRECTION('',(0.,0.,1.));
#1265 = DIRECTION('',(1.,0.,0.));
#1266 = PLANE('',#1267);
#1267 = AXIS2_PLACEMENT_3D('',#1268,#1269,#1270);
#1268 = CARTESIAN_POINT('',(-75.2,65.,0.));
#1269 = DIRECTION('',(0.,0.,1.));
#1270 = DIRECTION('',(1.,0.,0.));
#1271 = ADVANCED_FACE('',(#1272),#1284,.T.);
#1272 = FACE_BOUND('',#1273,.T.);
#1273 = EDGE_LOOP('',(#1274,#1275,#1276,#1282,#1283));
#1274 = ORIENTED_EDGE('',*,*,#720,.F.);
#1275 = ORIENTED_EDGE('',*,*,#699,.F.);
#1276 = ORIENTED_EDGE('',*,*,#1277,.T.);
#1277 = EDGE_CURVE('',#685,#1075,#1278,.T.);
#1278 = LINE('',#1279,#1280);
#1279 = CARTESIAN_POINT('',(-60.2,75.,0.));
#1280 = VECTOR('',#1281,1.);
#1281 = DIRECTION('',(0.,0.,1.));
#1282 = ORIENTED_EDGE('',*,*,#1074,.T.);
#1283 = ORIENTED_EDGE('',*,*,#1116,.F.);
#1284 = PLANE('',#1285);
#1285 = AXIS2_PLACEMENT_3D('',#1286,#1287,#1288);
#1286 = CARTESIAN_POINT('',(-75.2,75.,0.));
#1287 = DIRECTION('',(0.,1.,0.));
#1288 = DIRECTION('',(0.,0.,1.));
#1289 = ADVANCED_FACE('',(#1290),#1314,.F.);
#1290 = FACE_BOUND('',#1291,.F.);
#1291 = EDGE_LOOP('',(#1292,#1293,#1299,#1300,#1308));
#1292 = ORIENTED_EDGE('',*,*,#809,.F.);
#1293 = ORIENTED_EDGE('',*,*,#1294,.F.);
#1294 = EDGE_CURVE('',#743,#810,#1295,.T.);
#1295 = LINE('',#1296,#1297);
#1296 = CARTESIAN_POINT('',(-60.2,57.6,0.));
#1297 = VECTOR('',#1298,1.);
#1298 = DIRECTION('',(0.,0.,1.));
#1299 = ORIENTED_EDGE('',*,*,#742,.T.);
#1300 = ORIENTED_EDGE('',*,*,#1301,.F.);
#1301 = EDGE_CURVE('',#1302,#683,#1304,.T.);
#1302 = VERTEX_POINT('',#1303);
#1303 = CARTESIAN_POINT('',(-60.2,65.,4.));
#1304 = LINE('',#1305,#1306);
#1305 = CARTESIAN_POINT('',(-60.2,65.,0.));
#1306 = VECTOR('',#1307,1.);
#1307 = DIRECTION('',(0.,0.,-1.));
#1308 = ORIENTED_EDGE('',*,*,#1309,.F.);
#1309 = EDGE_CURVE('',#812,#1302,#1310,.T.);
#1310 = LINE('',#1311,#1312);
#1311 = CARTESIAN_POINT('',(-60.2,65.,0.));
#1312 = VECTOR('',#1313,1.);
#1313 = DIRECTION('',(0.,0.,-1.));
#1314 = PLANE('',#1315);
#1315 = AXIS2_PLACEMENT_3D('',#1316,#1317,#1318);
#1316 = CARTESIAN_POINT('',(-60.2,54.6,0.));
#1317 = DIRECTION('',(1.,0.,0.));
#1318 = DIRECTION('',(0.,0.,1.));
#1319 = ADVANCED_FACE('',(#1320),#1331,.T.);
#1320 = FACE_BOUND('',#1321,.T.);
#1321 = EDGE_LOOP('',(#1322,#1323,#1329,#1330));
#1322 = ORIENTED_EDGE('',*,*,#750,.T.);
#1323 = ORIENTED_EDGE('',*,*,#1324,.T.);
#1324 = EDGE_CURVE('',#751,#820,#1325,.T.);
#1325 = LINE('',#1326,#1327);
#1326 = CARTESIAN_POINT('',(-57.2,54.6,0.));
#1327 = VECTOR('',#1328,1.);
#1328 = DIRECTION('',(0.,0.,1.));
#1329 = ORIENTED_EDGE('',*,*,#819,.F.);
#1330 = ORIENTED_EDGE('',*,*,#1294,.F.);
#1331 = CYLINDRICAL_SURFACE('',#1332,3.);
#1332 = AXIS2_PLACEMENT_3D('',#1333,#1334,#1335);
#1333 = CARTESIAN_POINT('',(-57.2,57.6,0.));
#1334 = DIRECTION('',(0.,0.,1.));
#1335 = DIRECTION('',(-1.,0.,0.));
#1336 = ADVANCED_FACE('',(#1337),#1343,.F.);
#1337 = FACE_BOUND('',#1338,.F.);
#1338 = EDGE_LOOP('',(#1339,#1340,#1341,#1342));
#1339 = ORIENTED_EDGE('',*,*,#759,.F.);
#1340 = ORIENTED_EDGE('',*,*,#1324,.T.);
#1341 = ORIENTED_EDGE('',*,*,#828,.T.);
#1342 = ORIENTED_EDGE('',*,*,#785,.F.);
#1343 = PLANE('',#1344);
#1344 = AXIS2_PLACEMENT_3D('',#1345,#1346,#1347);
#1345 = CARTESIAN_POINT('',(-60.2,54.6,0.));
#1346 = DIRECTION('',(0.,1.,0.));
#1347 = DIRECTION('',(0.,0.,1.));
#1348 = ADVANCED_FACE('',(#1349),#1360,.T.);
#1349 = FACE_BOUND('',#1350,.T.);
#1350 = EDGE_LOOP('',(#1351,#1352,#1353,#1354));
#1351 = ORIENTED_EDGE('',*,*,#973,.F.);
#1352 = ORIENTED_EDGE('',*,*,#851,.T.);
#1353 = ORIENTED_EDGE('',*,*,#868,.T.);
#1354 = ORIENTED_EDGE('',*,*,#1355,.F.);
#1355 = EDGE_CURVE('',#974,#869,#1356,.T.);
#1356 = LINE('',#1357,#1358);
#1357 = CARTESIAN_POINT('',(1.41,75.,0.));
#1358 = VECTOR('',#1359,1.);
#1359 = DIRECTION('',(0.,0.,1.));
#1360 = PLANE('',#1361);
#1361 = AXIS2_PLACEMENT_3D('',#1362,#1363,#1364);
#1362 = CARTESIAN_POINT('',(-75.2,75.,0.));
#1363 = DIRECTION('',(0.,1.,0.));
#1364 = DIRECTION('',(0.,0.,1.));
#1365 = ADVANCED_FACE('',(#1366),#1385,.T.);
#1366 = FACE_BOUND('',#1367,.F.);
#1367 = EDGE_LOOP('',(#1368,#1377,#1383,#1384));
#1368 = ORIENTED_EDGE('',*,*,#1369,.T.);
#1369 = EDGE_CURVE('',#869,#1370,#1372,.T.);
#1370 = VERTEX_POINT('',#1371);
#1371 = CARTESIAN_POINT('',(6.4,70.01,4.));
#1372 = CIRCLE('',#1373,4.99);
#1373 = AXIS2_PLACEMENT_3D('',#1374,#1375,#1376);
#1374 = CARTESIAN_POINT('',(1.41,70.01,4.));
#1375 = DIRECTION('',(0.,0.,-1.));
#1376 = DIRECTION('',(0.,1.,0.));
#1377 = ORIENTED_EDGE('',*,*,#1378,.T.);
#1378 = EDGE_CURVE('',#1370,#940,#1379,.T.);
#1379 = LINE('',#1380,#1381);
#1380 = CARTESIAN_POINT('',(6.4,70.01,4.));
#1381 = VECTOR('',#1382,1.);
#1382 = DIRECTION('',(0.,0.,1.));
#1383 = ORIENTED_EDGE('',*,*,#947,.F.);
#1384 = ORIENTED_EDGE('',*,*,#885,.F.);
#1385 = CYLINDRICAL_SURFACE('',#1386,4.99);
#1386 = AXIS2_PLACEMENT_3D('',#1387,#1388,#1389);
#1387 = CARTESIAN_POINT('',(1.41,70.01,4.));
#1388 = DIRECTION('',(0.,0.,1.));
#1389 = DIRECTION('',(0.,1.,0.));
#1390 = ADVANCED_FACE('',(#1391),#1409,.T.);
#1391 = FACE_BOUND('',#1392,.T.);
#1392 = EDGE_LOOP('',(#1393,#1394,#1402,#1408));
#1393 = ORIENTED_EDGE('',*,*,#939,.F.);
#1394 = ORIENTED_EDGE('',*,*,#1395,.F.);
#1395 = EDGE_CURVE('',#1396,#931,#1398,.T.);
#1396 = VERTEX_POINT('',#1397);
#1397 = CARTESIAN_POINT('',(6.4,69.99,4.));
#1398 = LINE('',#1399,#1400);
#1399 = CARTESIAN_POINT('',(6.4,69.99,4.));
#1400 = VECTOR('',#1401,1.);
#1401 = DIRECTION('',(0.,0.,1.));
#1402 = ORIENTED_EDGE('',*,*,#1403,.T.);
#1403 = EDGE_CURVE('',#1396,#1370,#1404,.T.);
#1404 = LINE('',#1405,#1406);
#1405 = CARTESIAN_POINT('',(6.4,65.,4.));
#1406 = VECTOR('',#1407,1.);
#1407 = DIRECTION('',(0.,1.,0.));
#1408 = ORIENTED_EDGE('',*,*,#1378,.T.);
#1409 = PLANE('',#1410);
#1410 = AXIS2_PLACEMENT_3D('',#1411,#1412,#1413);
#1411 = CARTESIAN_POINT('',(6.4,65.,0.));
#1412 = DIRECTION('',(1.,0.,0.));
#1413 = DIRECTION('',(0.,0.,1.));
#1414 = ADVANCED_FACE('',(#1415),#1427,.T.);
#1415 = FACE_BOUND('',#1416,.F.);
#1416 = EDGE_LOOP('',(#1417,#1424,#1425,#1426));
#1417 = ORIENTED_EDGE('',*,*,#1418,.T.);
#1418 = EDGE_CURVE('',#1396,#1034,#1419,.T.);
#1419 = CIRCLE('',#1420,4.99);
#1420 = AXIS2_PLACEMENT_3D('',#1421,#1422,#1423);
#1421 = CARTESIAN_POINT('',(1.41,69.99,4.));
#1422 = DIRECTION('',(0.,0.,-1.));
#1423 = DIRECTION('',(1.,0.,0.));
#1424 = ORIENTED_EDGE('',*,*,#1043,.T.);
#1425 = ORIENTED_EDGE('',*,*,#930,.F.);
#1426 = ORIENTED_EDGE('',*,*,#1395,.F.);
#1427 = CYLINDRICAL_SURFACE('',#1428,4.99);
#1428 = AXIS2_PLACEMENT_3D('',#1429,#1430,#1431);
#1429 = CARTESIAN_POINT('',(1.41,69.99,4.));
#1430 = DIRECTION('',(0.,0.,1.));
#1431 = DIRECTION('',(1.,0.,0.));
#1432 = ADVANCED_FACE('',(#1433),#1444,.F.);
#1433 = FACE_BOUND('',#1434,.T.);
#1434 = EDGE_LOOP('',(#1435,#1441,#1442,#1443));
#1435 = ORIENTED_EDGE('',*,*,#1436,.T.);
#1436 = EDGE_CURVE('',#1017,#957,#1437,.T.);
#1437 = LINE('',#1438,#1439);
#1438 = CARTESIAN_POINT('',(3.4,70.,0.));
#1439 = VECTOR('',#1440,1.);
#1440 = DIRECTION('',(0.,0.,1.));
#1441 = ORIENTED_EDGE('',*,*,#956,.T.);
#1442 = ORIENTED_EDGE('',*,*,#1436,.F.);
#1443 = ORIENTED_EDGE('',*,*,#1016,.F.);
#1444 = CYLINDRICAL_SURFACE('',#1445,2.);
#1445 = AXIS2_PLACEMENT_3D('',#1446,#1447,#1448);
#1446 = CARTESIAN_POINT('',(1.4,70.,0.));
#1447 = DIRECTION('',(-0.,-0.,-1.));
#1448 = DIRECTION('',(1.,0.,0.));
#1449 = ADVANCED_FACE('',(#1450),#1461,.T.);
#1450 = FACE_BOUND('',#1451,.F.);
#1451 = EDGE_LOOP('',(#1452,#1453,#1459,#1460));
#1452 = ORIENTED_EDGE('',*,*,#1007,.T.);
#1453 = ORIENTED_EDGE('',*,*,#1454,.T.);
#1454 = EDGE_CURVE('',#1000,#1370,#1455,.T.);
#1455 = LINE('',#1456,#1457);
#1456 = CARTESIAN_POINT('',(6.4,70.01,0.));
#1457 = VECTOR('',#1458,1.);
#1458 = DIRECTION('',(0.,0.,1.));
#1459 = ORIENTED_EDGE('',*,*,#1369,.F.);
#1460 = ORIENTED_EDGE('',*,*,#1355,.F.);
#1461 = CYLINDRICAL_SURFACE('',#1462,4.99);
#1462 = AXIS2_PLACEMENT_3D('',#1463,#1464,#1465);
#1463 = CARTESIAN_POINT('',(1.41,70.01,0.));
#1464 = DIRECTION('',(0.,0.,1.));
#1465 = DIRECTION('',(0.,1.,0.));
#1466 = ADVANCED_FACE('',(#1467),#1478,.T.);
#1467 = FACE_BOUND('',#1468,.T.);
#1468 = EDGE_LOOP('',(#1469,#1470,#1476,#1477));
#1469 = ORIENTED_EDGE('',*,*,#1403,.F.);
#1470 = ORIENTED_EDGE('',*,*,#1471,.F.);
#1471 = EDGE_CURVE('',#991,#1396,#1472,.T.);
#1472 = LINE('',#1473,#1474);
#1473 = CARTESIAN_POINT('',(6.4,69.99,0.));
#1474 = VECTOR('',#1475,1.);
#1475 = DIRECTION('',(0.,0.,1.));
#1476 = ORIENTED_EDGE('',*,*,#999,.T.);
#1477 = ORIENTED_EDGE('',*,*,#1454,.T.);
#1478 = PLANE('',#1479);
#1479 = AXIS2_PLACEMENT_3D('',#1480,#1481,#1482);
#1480 = CARTESIAN_POINT('',(6.4,65.,0.));
#1481 = DIRECTION('',(1.,0.,0.));
#1482 = DIRECTION('',(0.,0.,1.));
#1483 = ADVANCED_FACE('',(#1484),#1490,.T.);
#1484 = FACE_BOUND('',#1485,.F.);
#1485 = EDGE_LOOP('',(#1486,#1487,#1488,#1489));
#1486 = ORIENTED_EDGE('',*,*,#990,.T.);
#1487 = ORIENTED_EDGE('',*,*,#1060,.T.);
#1488 = ORIENTED_EDGE('',*,*,#1418,.F.);
#1489 = ORIENTED_EDGE('',*,*,#1471,.F.);
#1490 = CYLINDRICAL_SURFACE('',#1491,4.99);
#1491 = AXIS2_PLACEMENT_3D('',#1492,#1493,#1494);
#1492 = CARTESIAN_POINT('',(1.41,69.99,0.));
#1493 = DIRECTION('',(0.,0.,1.));
#1494 = DIRECTION('',(1.,0.,0.));
#1495 = ADVANCED_FACE('',(#1496),#1521,.T.);
#1496 = FACE_BOUND('',#1497,.T.);
#1497 = EDGE_LOOP('',(#1498,#1506,#1514,#1520));
#1498 = ORIENTED_EDGE('',*,*,#1499,.F.);
#1499 = EDGE_CURVE('',#1500,#1075,#1502,.T.);
#1500 = VERTEX_POINT('',#1501);
#1501 = CARTESIAN_POINT('',(-70.21,75.,4.));
#1502 = LINE('',#1503,#1504);
#1503 = CARTESIAN_POINT('',(-75.2,75.,4.));
#1504 = VECTOR('',#1505,1.);
#1505 = DIRECTION('',(1.,0.,0.));
#1506 = ORIENTED_EDGE('',*,*,#1507,.T.);
#1507 = EDGE_CURVE('',#1500,#1508,#1510,.T.);
#1508 = VERTEX_POINT('',#1509);
#1509 = CARTESIAN_POINT('',(-70.21,75.,12.));
#1510 = LINE('',#1511,#1512);
#1511 = CARTESIAN_POINT('',(-70.21,75.,4.));
#1512 = VECTOR('',#1513,1.);
#1513 = DIRECTION('',(0.,0.,1.));
#1514 = ORIENTED_EDGE('',*,*,#1515,.T.);
#1515 = EDGE_CURVE('',#1508,#1085,#1516,.T.);
#1516 = LINE('',#1517,#1518);
#1517 = CARTESIAN_POINT('',(-75.2,75.,12.));
#1518 = VECTOR('',#1519,1.);
#1519 = DIRECTION('',(1.,0.,0.));
#1520 = ORIENTED_EDGE('',*,*,#1084,.F.);
#1521 = PLANE('',#1522);
#1522 = AXIS2_PLACEMENT_3D('',#1523,#1524,#1525);
#1523 = CARTESIAN_POINT('',(-75.2,75.,0.));
#1524 = DIRECTION('',(0.,1.,0.));
#1525 = DIRECTION('',(0.,0.,1.));
#1526 = ADVANCED_FACE('',(#1527,#1563),#1574,.T.);
#1527 = FACE_BOUND('',#1528,.T.);
#1528 = EDGE_LOOP('',(#1529,#1530,#1539,#1547,#1556,#1562));
#1529 = ORIENTED_EDGE('',*,*,#1515,.F.);
#1530 = ORIENTED_EDGE('',*,*,#1531,.F.);
#1531 = EDGE_CURVE('',#1532,#1508,#1534,.T.);
#1532 = VERTEX_POINT('',#1533);
#1533 = CARTESIAN_POINT('',(-75.2,70.01,12.));
#1534 = CIRCLE('',#1535,4.99);
#1535 = AXIS2_PLACEMENT_3D('',#1536,#1537,#1538);
#1536 = CARTESIAN_POINT('',(-70.21,70.01,12.));
#1537 = DIRECTION('',(-0.,-0.,-1.));
#1538 = DIRECTION('',(0.,-1.,0.));
#1539 = ORIENTED_EDGE('',*,*,#1540,.F.);
#1540 = EDGE_CURVE('',#1541,#1532,#1543,.T.);
#1541 = VERTEX_POINT('',#1542);
#1542 = CARTESIAN_POINT('',(-75.2,69.99,12.));
#1543 = LINE('',#1544,#1545);
#1544 = CARTESIAN_POINT('',(-75.2,65.,12.));
#1545 = VECTOR('',#1546,1.);
#1546 = DIRECTION('',(0.,1.,0.));
#1547 = ORIENTED_EDGE('',*,*,#1548,.T.);
#1548 = EDGE_CURVE('',#1541,#1549,#1551,.T.);
#1549 = VERTEX_POINT('',#1550);
#1550 = CARTESIAN_POINT('',(-70.21,65.,12.));
#1551 = CIRCLE('',#1552,4.99);
#1552 = AXIS2_PLACEMENT_3D('',#1553,#1554,#1555);
#1553 = CARTESIAN_POINT('',(-70.21,69.99,12.));
#1554 = DIRECTION('',(-0.,0.,1.));
#1555 = DIRECTION('',(0.,-1.,0.));
#1556 = ORIENTED_EDGE('',*,*,#1557,.T.);
#1557 = EDGE_CURVE('',#1549,#812,#1558,.T.);
#1558 = LINE('',#1559,#1560);
#1559 = CARTESIAN_POINT('',(-75.2,65.,12.));
#1560 = VECTOR('',#1561,1.);
#1561 = DIRECTION('',(1.,0.,0.));
#1562 = ORIENTED_EDGE('',*,*,#1199,.T.);
#1563 = FACE_BOUND('',#1564,.T.);
#1564 = EDGE_LOOP('',(#1565));
#1565 = ORIENTED_EDGE('',*,*,#1566,.F.);
#1566 = EDGE_CURVE('',#1567,#1567,#1569,.T.);
#1567 = VERTEX_POINT('',#1568);
#1568 = CARTESIAN_POINT('',(-68.2,70.,12.));
#1569 = CIRCLE('',#1570,2.);
#1570 = AXIS2_PLACEMENT_3D('',#1571,#1572,#1573);
#1571 = CARTESIAN_POINT('',(-70.2,70.,12.));
#1572 = DIRECTION('',(0.,0.,1.));
#1573 = DIRECTION('',(1.,0.,0.));
#1574 = PLANE('',#1575);
#1575 = AXIS2_PLACEMENT_3D('',#1576,#1577,#1578);
#1576 = CARTESIAN_POINT('',(-75.2,65.,12.));
#1577 = DIRECTION('',(0.,0.,1.));
#1578 = DIRECTION('',(1.,0.,0.));
#1579 = ADVANCED_FACE('',(#1580),#1605,.F.);
#1580 = FACE_BOUND('',#1581,.F.);
#1581 = EDGE_LOOP('',(#1582,#1592,#1598,#1599));
#1582 = ORIENTED_EDGE('',*,*,#1583,.F.);
#1583 = EDGE_CURVE('',#1584,#1586,#1588,.T.);
#1584 = VERTEX_POINT('',#1585);
#1585 = CARTESIAN_POINT('',(-75.2,69.99,4.));
#1586 = VERTEX_POINT('',#1587);
#1587 = CARTESIAN_POINT('',(-75.2,70.01,4.));
#1588 = LINE('',#1589,#1590);
#1589 = CARTESIAN_POINT('',(-75.2,65.,4.));
#1590 = VECTOR('',#1591,1.);
#1591 = DIRECTION('',(0.,1.,0.));
#1592 = ORIENTED_EDGE('',*,*,#1593,.F.);
#1593 = EDGE_CURVE('',#1216,#1584,#1594,.T.);
#1594 = LINE('',#1595,#1596);
#1595 = CARTESIAN_POINT('',(-75.2,69.99,0.));
#1596 = VECTOR('',#1597,1.);
#1597 = DIRECTION('',(0.,0.,1.));
#1598 = ORIENTED_EDGE('',*,*,#1215,.T.);
#1599 = ORIENTED_EDGE('',*,*,#1600,.T.);
#1600 = EDGE_CURVE('',#1218,#1586,#1601,.T.);
#1601 = LINE('',#1602,#1603);
#1602 = CARTESIAN_POINT('',(-75.2,70.01,0.));
#1603 = VECTOR('',#1604,1.);
#1604 = DIRECTION('',(0.,0.,1.));
#1605 = PLANE('',#1606);
#1606 = AXIS2_PLACEMENT_3D('',#1607,#1608,#1609);
#1607 = CARTESIAN_POINT('',(-75.2,65.,0.));
#1608 = DIRECTION('',(1.,0.,0.));
#1609 = DIRECTION('',(0.,0.,1.));
#1610 = ADVANCED_FACE('',(#1611),#1630,.T.);
#1611 = FACE_BOUND('',#1612,.T.);
#1612 = EDGE_LOOP('',(#1613,#1614,#1622,#1629));
#1613 = ORIENTED_EDGE('',*,*,#1225,.T.);
#1614 = ORIENTED_EDGE('',*,*,#1615,.T.);
#1615 = EDGE_CURVE('',#1226,#1616,#1618,.T.);
#1616 = VERTEX_POINT('',#1617);
#1617 = CARTESIAN_POINT('',(-70.21,65.,4.));
#1618 = LINE('',#1619,#1620);
#1619 = CARTESIAN_POINT('',(-70.21,65.,0.));
#1620 = VECTOR('',#1621,1.);
#1621 = DIRECTION('',(0.,0.,1.));
#1622 = ORIENTED_EDGE('',*,*,#1623,.F.);
#1623 = EDGE_CURVE('',#1584,#1616,#1624,.T.);
#1624 = CIRCLE('',#1625,4.99);
#1625 = AXIS2_PLACEMENT_3D('',#1626,#1627,#1628);
#1626 = CARTESIAN_POINT('',(-70.21,69.99,4.));
#1627 = DIRECTION('',(0.,0.,1.));
#1628 = DIRECTION('',(-1.,0.,0.));
#1629 = ORIENTED_EDGE('',*,*,#1593,.F.);
#1630 = CYLINDRICAL_SURFACE('',#1631,4.99);
#1631 = AXIS2_PLACEMENT_3D('',#1632,#1633,#1634);
#1632 = CARTESIAN_POINT('',(-70.21,69.99,0.));
#1633 = DIRECTION('',(0.,0.,1.));
#1634 = DIRECTION('',(-1.,0.,0.));
#1635 = ADVANCED_FACE('',(#1636),#1653,.T.);
#1636 = FACE_BOUND('',#1637,.F.);
#1637 = EDGE_LOOP('',(#1638,#1639,#1645,#1652));
#1638 = ORIENTED_EDGE('',*,*,#1249,.T.);
#1639 = ORIENTED_EDGE('',*,*,#1640,.T.);
#1640 = EDGE_CURVE('',#1242,#1500,#1641,.T.);
#1641 = LINE('',#1642,#1643);
#1642 = CARTESIAN_POINT('',(-70.21,75.,0.));
#1643 = VECTOR('',#1644,1.);
#1644 = DIRECTION('',(0.,0.,1.));
#1645 = ORIENTED_EDGE('',*,*,#1646,.F.);
#1646 = EDGE_CURVE('',#1586,#1500,#1647,.T.);
#1647 = CIRCLE('',#1648,4.99);
#1648 = AXIS2_PLACEMENT_3D('',#1649,#1650,#1651);
#1649 = CARTESIAN_POINT('',(-70.21,70.01,4.));
#1650 = DIRECTION('',(0.,0.,-1.));
#1651 = DIRECTION('',(-1.,0.,0.));
#1652 = ORIENTED_EDGE('',*,*,#1600,.F.);
#1653 = CYLINDRICAL_SURFACE('',#1654,4.99);
#1654 = AXIS2_PLACEMENT_3D('',#1655,#1656,#1657);
#1655 = CARTESIAN_POINT('',(-70.21,70.01,0.));
#1656 = DIRECTION('',(0.,0.,1.));
#1657 = DIRECTION('',(-1.,0.,0.));
#1658 = ADVANCED_FACE('',(#1659),#1670,.F.);
#1659 = FACE_BOUND('',#1660,.F.);
#1660 = EDGE_LOOP('',(#1661,#1667,#1668,#1669));
#1661 = ORIENTED_EDGE('',*,*,#1662,.T.);
#1662 = EDGE_CURVE('',#1616,#1302,#1663,.T.);
#1663 = LINE('',#1664,#1665);
#1664 = CARTESIAN_POINT('',(-75.2,65.,4.));
#1665 = VECTOR('',#1666,1.);
#1666 = DIRECTION('',(1.,0.,0.));
#1667 = ORIENTED_EDGE('',*,*,#1301,.T.);
#1668 = ORIENTED_EDGE('',*,*,#1234,.F.);
#1669 = ORIENTED_EDGE('',*,*,#1615,.T.);
#1670 = PLANE('',#1671);
#1671 = AXIS2_PLACEMENT_3D('',#1672,#1673,#1674);
#1672 = CARTESIAN_POINT('',(-75.2,65.,0.));
#1673 = DIRECTION('',(0.,1.,0.));
#1674 = DIRECTION('',(0.,0.,1.));
#1675 = ADVANCED_FACE('',(#1676),#1682,.T.);
#1676 = FACE_BOUND('',#1677,.T.);
#1677 = EDGE_LOOP('',(#1678,#1679,#1680,#1681));
#1678 = ORIENTED_EDGE('',*,*,#1241,.F.);
#1679 = ORIENTED_EDGE('',*,*,#1640,.T.);
#1680 = ORIENTED_EDGE('',*,*,#1499,.T.);
#1681 = ORIENTED_EDGE('',*,*,#1277,.F.);
#1682 = PLANE('',#1683);
#1683 = AXIS2_PLACEMENT_3D('',#1684,#1685,#1686);
#1684 = CARTESIAN_POINT('',(-75.2,75.,0.));
#1685 = DIRECTION('',(0.,1.,0.));
#1686 = DIRECTION('',(0.,0.,1.));
#1687 = ADVANCED_FACE('',(#1688),#1699,.F.);
#1688 = FACE_BOUND('',#1689,.T.);
#1689 = EDGE_LOOP('',(#1690,#1696,#1697,#1698));
#1690 = ORIENTED_EDGE('',*,*,#1691,.T.);
#1691 = EDGE_CURVE('',#1259,#1567,#1692,.T.);
#1692 = LINE('',#1693,#1694);
#1693 = CARTESIAN_POINT('',(-68.2,70.,0.));
#1694 = VECTOR('',#1695,1.);
#1695 = DIRECTION('',(0.,0.,1.));
#1696 = ORIENTED_EDGE('',*,*,#1566,.T.);
#1697 = ORIENTED_EDGE('',*,*,#1691,.F.);
#1698 = ORIENTED_EDGE('',*,*,#1258,.F.);
#1699 = CYLINDRICAL_SURFACE('',#1700,2.);
#1700 = AXIS2_PLACEMENT_3D('',#1701,#1702,#1703);
#1701 = CARTESIAN_POINT('',(-70.2,70.,0.));
#1702 = DIRECTION('',(-0.,-0.,-1.));
#1703 = DIRECTION('',(1.,0.,0.));
#1704 = ADVANCED_FACE('',(#1705),#1716,.F.);
#1705 = FACE_BOUND('',#1706,.F.);
#1706 = EDGE_LOOP('',(#1707,#1708,#1714,#1715));
#1707 = ORIENTED_EDGE('',*,*,#1662,.F.);
#1708 = ORIENTED_EDGE('',*,*,#1709,.T.);
#1709 = EDGE_CURVE('',#1616,#1549,#1710,.T.);
#1710 = LINE('',#1711,#1712);
#1711 = CARTESIAN_POINT('',(-70.21,65.,4.));
#1712 = VECTOR('',#1713,1.);
#1713 = DIRECTION('',(0.,0.,1.));
#1714 = ORIENTED_EDGE('',*,*,#1557,.T.);
#1715 = ORIENTED_EDGE('',*,*,#1309,.T.);
#1716 = PLANE('',#1717);
#1717 = AXIS2_PLACEMENT_3D('',#1718,#1719,#1720);
#1718 = CARTESIAN_POINT('',(-75.2,65.,0.));
#1719 = DIRECTION('',(0.,1.,0.));
#1720 = DIRECTION('',(0.,0.,1.));
#1721 = ADVANCED_FACE('',(#1722),#1733,.T.);
#1722 = FACE_BOUND('',#1723,.F.);
#1723 = EDGE_LOOP('',(#1724,#1725,#1726,#1727));
#1724 = ORIENTED_EDGE('',*,*,#1646,.T.);
#1725 = ORIENTED_EDGE('',*,*,#1507,.T.);
#1726 = ORIENTED_EDGE('',*,*,#1531,.F.);
#1727 = ORIENTED_EDGE('',*,*,#1728,.F.);
#1728 = EDGE_CURVE('',#1586,#1532,#1729,.T.);
#1729 = LINE('',#1730,#1731);
#1730 = CARTESIAN_POINT('',(-75.2,70.01,4.));
#1731 = VECTOR('',#1732,1.);
#1732 = DIRECTION('',(0.,0.,1.));
#1733 = CYLINDRICAL_SURFACE('',#1734,4.99);
#1734 = AXIS2_PLACEMENT_3D('',#1735,#1736,#1737);
#1735 = CARTESIAN_POINT('',(-70.21,70.01,4.));
#1736 = DIRECTION('',(0.,0.,1.));
#1737 = DIRECTION('',(-1.,0.,0.));
#1738 = ADVANCED_FACE('',(#1739),#1750,.F.);
#1739 = FACE_BOUND('',#1740,.F.);
#1740 = EDGE_LOOP('',(#1741,#1742,#1748,#1749));
#1741 = ORIENTED_EDGE('',*,*,#1540,.F.);
#1742 = ORIENTED_EDGE('',*,*,#1743,.F.);
#1743 = EDGE_CURVE('',#1584,#1541,#1744,.T.);
#1744 = LINE('',#1745,#1746);
#1745 = CARTESIAN_POINT('',(-75.2,69.99,4.));
#1746 = VECTOR('',#1747,1.);
#1747 = DIRECTION('',(0.,0.,1.));
#1748 = ORIENTED_EDGE('',*,*,#1583,.T.);
#1749 = ORIENTED_EDGE('',*,*,#1728,.T.);
#1750 = PLANE('',#1751);
#1751 = AXIS2_PLACEMENT_3D('',#1752,#1753,#1754);
#1752 = CARTESIAN_POINT('',(-75.2,65.,0.));
#1753 = DIRECTION('',(1.,0.,0.));
#1754 = DIRECTION('',(0.,0.,1.));
#1755 = ADVANCED_FACE('',(#1756),#1762,.T.);
#1756 = FACE_BOUND('',#1757,.T.);
#1757 = EDGE_LOOP('',(#1758,#1759,#1760,#1761));
#1758 = ORIENTED_EDGE('',*,*,#1623,.T.);
#1759 = ORIENTED_EDGE('',*,*,#1709,.T.);
#1760 = ORIENTED_EDGE('',*,*,#1548,.F.);
#1761 = ORIENTED_EDGE('',*,*,#1743,.F.);
#1762 = CYLINDRICAL_SURFACE('',#1763,4.99);
#1763 = AXIS2_PLACEMENT_3D('',#1764,#1765,#1766);
#1764 = CARTESIAN_POINT('',(-70.21,69.99,4.));
#1765 = DIRECTION('',(0.,0.,1.));
#1766 = DIRECTION('',(-1.,0.,0.));
#1767 = ( GEOMETRIC_REPRESENTATION_CONTEXT(3) 
GLOBAL_UNCERTAINTY_ASSIGNED_CONTEXT((#1771)) 
GLOBAL_UNIT_ASSIGNED_CONTEXT((#1768,#1769,#1770)) REPRESENTATION_CONTEXT
('Context #1','3D Context with UNIT and UNCERTAINTY') );
#1768 = ( LENGTH_UNIT() NAMED_UNIT(*) SI_UNIT(.MILLI.,.METRE.) );
#1769 = ( NAMED_UNIT(*) PLANE_ANGLE_UNIT() SI_UNIT($,.RADIAN.) );
#1770 = ( NAMED_UNIT(*) SI_UNIT($,.STERADIAN.) SOLID_ANGLE_UNIT() );
#1771 = UNCERTAINTY_MEASURE_WITH_UNIT(LENGTH_MEASURE(1.E-05),#1768,
  'distance_accuracy_value','confusion accuracy');
#1772 = PRODUCT_RELATED_PRODUCT_CATEGORY('part',$,(#7));
#1773 = MECHANICAL_DESIGN_GEOMETRIC_PRESENTATION_REPRESENTATION('',(
    #1774),#1767);
#1774 = STYLED_ITEM('color',(#1775),#15);
#1775 = PRESENTATION_STYLE_ASSIGNMENT((#1776,#1782));
#1776 = SURFACE_STYLE_USAGE(.BOTH.,#1777);
#1777 = SURFACE_SIDE_STYLE('',(#1778));
#1778 = SURFACE_STYLE_FILL_AREA(#1779);
#1779 = FILL_AREA_STYLE('',(#1780));
#1780 = FILL_AREA_STYLE_COLOUR('',#1781);
#1781 = COLOUR_RGB('',0.678431390124,0.709803936702,0.741176476869);
#1782 = CURVE_STYLE('',#1783,POSITIVE_LENGTH_MEASURE(0.1),#1784);
#1783 = DRAUGHTING_PRE_DEFINED_CURVE_FONT('continuous');
#1784 = COLOUR_RGB('',9.803921802644E-02,9.803921802644E-02,
  9.803921802644E-02);
ENDSEC;
END-ISO-10303-21;
